<svg xmlns="http://www.w3.org/2000/svg" xmlns:xlink="http://www.w3.org/1999/xlink" xmlns:inkscape="http://www.inkscape.org/namespaces/inkscape" version="1.1" width="197" height="153" viewBox="0 0 197 153">
<defs>
<clipPath id="clip_1">
<path transform="matrix(1.00006,0,0,-1.00009,1.5323715,159.00923)" d="M0 0H194.2676V161.39636H0Z"/>
</clipPath>
</defs>
<g clip-path="url(#clip_1)">
<path transform="matrix(1.00006,0,0,-1.00009,1.5323715,159.00923)" d="M32.37793 10.08727V90.78545H75.54851V10.08727H32.37793" fill="#e2b6b7"/>
<path transform="matrix(1.00006,0,0,-1.00009,1.5323715,159.00923)" stroke-width=".3985" stroke-linecap="butt" stroke-miterlimit="10" stroke-linejoin="miter" fill="none" stroke="#9e0c0f" d="M32.37793 10.08727V90.78545H75.54851V10.08727H32.37793"/>
<path transform="matrix(1.00006,0,0,-1.00009,1.5323715,159.00923)" d="M69.07292 18.15709H64.75586V13.11345H69.07292V18.15709H64.75586 66.91438V13.11345 15.63525H64.75586 69.07292" fill="#ffffff"/>
<path transform="matrix(1.00006,0,0,-1.00009,1.5323715,159.00923)" stroke-width=".3985" stroke-linecap="butt" stroke-miterlimit="10" stroke-linejoin="miter" fill="none" stroke="#000000" d="M69.07292 18.15709H64.75586V13.11345H69.07292V18.15709H64.75586 66.91438V13.11345 15.63525H64.75586 69.07292"/>
<path transform="matrix(1.00006,0,0,-1.00009,1.5323715,159.00923)" d="M43.17058 18.15709H38.85352V13.11345H43.17058V18.15709H38.85352 41.01204V13.11345 15.63525H38.85352 43.17058" fill="#ffffff"/>
<path transform="matrix(1.00006,0,0,-1.00009,1.5323715,159.00923)" stroke-width=".3985" stroke-linecap="butt" stroke-miterlimit="10" stroke-linejoin="miter" fill="none" stroke="#000000" d="M43.17058 18.15709H38.85352V13.11345H43.17058V18.15709H38.85352 41.01204V13.11345 15.63525H38.85352 43.17058"/>
<path transform="matrix(1.00006,0,0,-1.00009,1.5323715,159.00923)" d="M58.28027 19.16582V10.08727H49.64616V19.16582H58.28027" fill="#999999"/>
<path transform="matrix(1.00006,0,0,-1.00009,1.5323715,159.00923)" stroke-width=".3985" stroke-linecap="butt" stroke-miterlimit="10" stroke-linejoin="miter" fill="none" stroke="#000000" d="M58.28027 19.16582V10.08727H49.64616V19.16582H58.28027"/>
<path transform="matrix(1.00006,0,0,-1.00009,1.5323715,159.00923)" stroke-width=".3985" stroke-linecap="butt" stroke-miterlimit="10" stroke-linejoin="miter" fill="none" stroke="#000000" d="M53.96321 10.08727V19.16582"/>
<path transform="matrix(1.00006,0,0,-1.00009,1.5323715,159.00923)" d="M43.17058 28.24435H38.85352V23.20071H43.17058V28.24435H38.85352 41.01204V23.20071 25.72253H38.85352 43.17058" fill="#ffffff"/>
<path transform="matrix(1.00006,0,0,-1.00009,1.5323715,159.00923)" stroke-width=".3985" stroke-linecap="butt" stroke-miterlimit="10" stroke-linejoin="miter" fill="none" stroke="#000000" d="M43.17058 28.24435H38.85352V23.20071H43.17058V28.24435H38.85352 41.01204V23.20071 25.72253H38.85352 43.17058"/>
<path transform="matrix(1.00006,0,0,-1.00009,1.5323715,159.00923)" d="M43.17058 38.33163H38.85352V33.288H43.17058V38.33163H38.85352 41.01204V33.288 35.8098H38.85352 43.17058" fill="#ffffff"/>
<path transform="matrix(1.00006,0,0,-1.00009,1.5323715,159.00923)" stroke-width=".3985" stroke-linecap="butt" stroke-miterlimit="10" stroke-linejoin="miter" fill="none" stroke="#000000" d="M43.17058 38.33163H38.85352V33.288H43.17058V38.33163H38.85352 41.01204V33.288 35.8098H38.85352 43.17058"/>
<path transform="matrix(1.00006,0,0,-1.00009,1.5323715,159.00923)" d="M43.17058 48.4189H38.85352V43.37526H43.17058V48.4189H38.85352 41.01204V43.37526 45.89708H38.85352 43.17058" fill="#ffffff"/>
<path transform="matrix(1.00006,0,0,-1.00009,1.5323715,159.00923)" stroke-width=".3985" stroke-linecap="butt" stroke-miterlimit="10" stroke-linejoin="miter" fill="none" stroke="#000000" d="M43.17058 48.4189H38.85352V43.37526H43.17058V48.4189H38.85352 41.01204V43.37526 45.89708H38.85352 43.17058"/>
<path transform="matrix(1.00006,0,0,-1.00009,1.5323715,159.00923)" d="M43.17058 58.50618H38.85352V53.46254H43.17058V58.50618H38.85352 41.01204V53.46254 55.98434H38.85352 43.17058" fill="#ffffff"/>
<path transform="matrix(1.00006,0,0,-1.00009,1.5323715,159.00923)" stroke-width=".3985" stroke-linecap="butt" stroke-miterlimit="10" stroke-linejoin="miter" fill="none" stroke="#000000" d="M43.17058 58.50618H38.85352V53.46254H43.17058V58.50618H38.85352 41.01204V53.46254 55.98434H38.85352 43.17058"/>
<path transform="matrix(1.00006,0,0,-1.00009,1.5323715,159.00923)" d="M43.17058 68.59344H38.85352V63.5498H43.17058V68.59344H38.85352 41.01204V63.5498 66.07162H38.85352 43.17058" fill="#ffffff"/>
<path transform="matrix(1.00006,0,0,-1.00009,1.5323715,159.00923)" stroke-width=".3985" stroke-linecap="butt" stroke-miterlimit="10" stroke-linejoin="miter" fill="none" stroke="#000000" d="M43.17058 68.59344H38.85352V63.5498H43.17058V68.59344H38.85352 41.01204V63.5498 66.07162H38.85352 43.17058"/>
<path transform="matrix(1.00006,0,0,-1.00009,1.5323715,159.00923)" d="M43.17058 78.68073H38.85352V73.63708H43.17058V78.68073H38.85352 41.01204V73.63708 76.15889H38.85352 43.17058" fill="#ffffff"/>
<path transform="matrix(1.00006,0,0,-1.00009,1.5323715,159.00923)" stroke-width=".3985" stroke-linecap="butt" stroke-miterlimit="10" stroke-linejoin="miter" fill="none" stroke="#000000" d="M43.17058 78.68073H38.85352V73.63708H43.17058V78.68073H38.85352 41.01204V73.63708 76.15889H38.85352 43.17058"/>
<path transform="matrix(1.00006,0,0,-1.00009,1.5323715,159.00923)" d="M56.12175 28.24435H51.80469V23.20071H56.12175V28.24435H51.80469 53.96321V23.20071 25.72253H51.80469 56.12175" fill="#ffffff"/>
<path transform="matrix(1.00006,0,0,-1.00009,1.5323715,159.00923)" stroke-width=".3985" stroke-linecap="butt" stroke-miterlimit="10" stroke-linejoin="miter" fill="none" stroke="#000000" d="M56.12175 28.24435H51.80469V23.20071H56.12175V28.24435H51.80469 53.96321V23.20071 25.72253H51.80469 56.12175"/>
<path transform="matrix(1.00006,0,0,-1.00009,1.5323715,159.00923)" d="M56.12175 38.33163H51.80469V33.288H56.12175V38.33163H51.80469 53.96321V33.288 35.8098H51.80469 56.12175" fill="#ffffff"/>
<path transform="matrix(1.00006,0,0,-1.00009,1.5323715,159.00923)" stroke-width=".3985" stroke-linecap="butt" stroke-miterlimit="10" stroke-linejoin="miter" fill="none" stroke="#000000" d="M56.12175 38.33163H51.80469V33.288H56.12175V38.33163H51.80469 53.96321V33.288 35.8098H51.80469 56.12175"/>
<path transform="matrix(1.00006,0,0,-1.00009,1.5323715,159.00923)" d="M56.12175 48.4189H51.80469V43.37526H56.12175V48.4189H51.80469 53.96321V43.37526 45.89708H51.80469 56.12175" fill="#ffffff"/>
<path transform="matrix(1.00006,0,0,-1.00009,1.5323715,159.00923)" stroke-width=".3985" stroke-linecap="butt" stroke-miterlimit="10" stroke-linejoin="miter" fill="none" stroke="#000000" d="M56.12175 48.4189H51.80469V43.37526H56.12175V48.4189H51.80469 53.96321V43.37526 45.89708H51.80469 56.12175"/>
<path transform="matrix(1.00006,0,0,-1.00009,1.5323715,159.00923)" d="M56.12175 58.50618H51.80469V53.46254H56.12175V58.50618H51.80469 53.96321V53.46254 55.98434H51.80469 56.12175" fill="#ffffff"/>
<path transform="matrix(1.00006,0,0,-1.00009,1.5323715,159.00923)" stroke-width=".3985" stroke-linecap="butt" stroke-miterlimit="10" stroke-linejoin="miter" fill="none" stroke="#000000" d="M56.12175 58.50618H51.80469V53.46254H56.12175V58.50618H51.80469 53.96321V53.46254 55.98434H51.80469 56.12175"/>
<path transform="matrix(1.00006,0,0,-1.00009,1.5323715,159.00923)" d="M56.12175 68.59344H51.80469V63.5498H56.12175V68.59344H51.80469 53.96321V63.5498 66.07162H51.80469 56.12175" fill="#ffffff"/>
<path transform="matrix(1.00006,0,0,-1.00009,1.5323715,159.00923)" stroke-width=".3985" stroke-linecap="butt" stroke-miterlimit="10" stroke-linejoin="miter" fill="none" stroke="#000000" d="M56.12175 68.59344H51.80469V63.5498H56.12175V68.59344H51.80469 53.96321V63.5498 66.07162H51.80469 56.12175"/>
<path transform="matrix(1.00006,0,0,-1.00009,1.5323715,159.00923)" d="M56.12175 78.68073H51.80469V73.63708H56.12175V78.68073H51.80469 53.96321V73.63708 76.15889H51.80469 56.12175" fill="#ffffff"/>
<path transform="matrix(1.00006,0,0,-1.00009,1.5323715,159.00923)" stroke-width=".3985" stroke-linecap="butt" stroke-miterlimit="10" stroke-linejoin="miter" fill="none" stroke="#000000" d="M56.12175 78.68073H51.80469V73.63708H56.12175V78.68073H51.80469 53.96321V73.63708 76.15889H51.80469 56.12175"/>
<path transform="matrix(1.00006,0,0,-1.00009,1.5323715,159.00923)" d="M69.07292 28.24435H64.75586V23.20071H69.07292V28.24435H64.75586 66.91438V23.20071 25.72253H64.75586 69.07292" fill="#ffffff"/>
<path transform="matrix(1.00006,0,0,-1.00009,1.5323715,159.00923)" stroke-width=".3985" stroke-linecap="butt" stroke-miterlimit="10" stroke-linejoin="miter" fill="none" stroke="#000000" d="M69.07292 28.24435H64.75586V23.20071H69.07292V28.24435H64.75586 66.91438V23.20071 25.72253H64.75586 69.07292"/>
<path transform="matrix(1.00006,0,0,-1.00009,1.5323715,159.00923)" d="M69.07292 38.33163H64.75586V33.288H69.07292V38.33163H64.75586 66.91438V33.288 35.8098H64.75586 69.07292" fill="#ffffff"/>
<path transform="matrix(1.00006,0,0,-1.00009,1.5323715,159.00923)" stroke-width=".3985" stroke-linecap="butt" stroke-miterlimit="10" stroke-linejoin="miter" fill="none" stroke="#000000" d="M69.07292 38.33163H64.75586V33.288H69.07292V38.33163H64.75586 66.91438V33.288 35.8098H64.75586 69.07292"/>
<path transform="matrix(1.00006,0,0,-1.00009,1.5323715,159.00923)" d="M69.07292 48.4189H64.75586V43.37526H69.07292V48.4189H64.75586 66.91438V43.37526 45.89708H64.75586 69.07292" fill="#ffffff"/>
<path transform="matrix(1.00006,0,0,-1.00009,1.5323715,159.00923)" stroke-width=".3985" stroke-linecap="butt" stroke-miterlimit="10" stroke-linejoin="miter" fill="none" stroke="#000000" d="M69.07292 48.4189H64.75586V43.37526H69.07292V48.4189H64.75586 66.91438V43.37526 45.89708H64.75586 69.07292"/>
<path transform="matrix(1.00006,0,0,-1.00009,1.5323715,159.00923)" d="M69.07292 58.50618H64.75586V53.46254H69.07292V58.50618H64.75586 66.91438V53.46254 55.98434H64.75586 69.07292" fill="#ffffff"/>
<path transform="matrix(1.00006,0,0,-1.00009,1.5323715,159.00923)" stroke-width=".3985" stroke-linecap="butt" stroke-miterlimit="10" stroke-linejoin="miter" fill="none" stroke="#000000" d="M69.07292 58.50618H64.75586V53.46254H69.07292V58.50618H64.75586 66.91438V53.46254 55.98434H64.75586 69.07292"/>
<path transform="matrix(1.00006,0,0,-1.00009,1.5323715,159.00923)" d="M69.07292 68.59344H64.75586V63.5498H69.07292V68.59344H64.75586 66.91438V63.5498 66.07162H64.75586 69.07292" fill="#ffffff"/>
<path transform="matrix(1.00006,0,0,-1.00009,1.5323715,159.00923)" stroke-width=".3985" stroke-linecap="butt" stroke-miterlimit="10" stroke-linejoin="miter" fill="none" stroke="#000000" d="M69.07292 68.59344H64.75586V63.5498H69.07292V68.59344H64.75586 66.91438V63.5498 66.07162H64.75586 69.07292"/>
<path transform="matrix(1.00006,0,0,-1.00009,1.5323715,159.00923)" d="M69.07292 78.68073H64.75586V73.63708H69.07292V78.68073H64.75586 66.91438V73.63708 76.15889H64.75586 69.07292" fill="#ffffff"/>
<path transform="matrix(1.00006,0,0,-1.00009,1.5323715,159.00923)" stroke-width=".3985" stroke-linecap="butt" stroke-miterlimit="10" stroke-linejoin="miter" fill="none" stroke="#000000" d="M69.07292 78.68073H64.75586V73.63708H69.07292V78.68073H64.75586 66.91438V73.63708 76.15889H64.75586 69.07292"/>
<path transform="matrix(1.00006,0,0,-1.00009,1.5323715,159.00923)" stroke-width=".3985" stroke-linecap="butt" stroke-miterlimit="10" stroke-linejoin="miter" fill="none" stroke="#000000" d="M0 10.08727H194.2676"/>
<path transform="matrix(1.00006,0,0,-1.00009,1.5323715,159.00923)" stroke-width=".3985" stroke-linecap="butt" stroke-miterlimit="10" stroke-linejoin="miter" fill="none" stroke="#008099" d="M64.75586 90.78545C64.75586 90.78545 70.32567 106.52785 72.46489 111.78343 74.60411 117.03903 78.0347 124.5511 80.17392 128.66419 82.31314 132.77727 85.74374 138.45714 87.88297 141.42769 90.02219 144.39826 93.45277 148.24588 95.592 150.07392 97.73122 151.90193 101.1618 153.91738 103.30103 154.60288 105.44025 155.28839 108.87083 155.4716 111.01006 155.0146 113.14928 154.5576 116.57988 152.90856 118.7191 151.30904 120.85832 149.70952 124.28891 146.2283 126.42813 143.48627 128.56735 140.74423 131.99794 135.43088 134.13716 131.5463 136.27639 127.66173 139.70697 120.51599 141.84619 115.48888 143.98542 110.46176 147.41602 101.48392 149.55524 95.31429 151.69446 89.14465 155.12505 78.3345 157.26427 71.02237 159.40349 63.71024 162.83408 51.0681 164.9733 42.61345 167.11252 34.1588 172.68233 10.0871 172.68233 10.0871"/>
</g>
<path transform="matrix(1.00006,0,0,-1.00009,1.5323715,159.00923)" d="M66.74841 90.78545C66.74841 91.88593 65.85634 92.778 64.75586 92.778 63.6554 92.778 62.7633 91.88593 62.7633 90.78545 62.7633 89.68498 63.6554 88.7929 64.75586 88.7929 65.85634 88.7929 66.74841 89.68498 66.74841 90.78545ZM64.75586 90.78545" fill="#008099"/>
<path transform="matrix(1.00006,0,0,-1.00009,1.5323715,159.00923)" stroke-width=".3985" stroke-linecap="butt" stroke-miterlimit="10" stroke-linejoin="miter" fill="none" stroke="#008099" d="M66.74841 90.78545C66.74841 91.88593 65.85634 92.778 64.75586 92.778 63.6554 92.778 62.7633 91.88593 62.7633 90.78545 62.7633 89.68498 63.6554 88.7929 64.75586 88.7929 65.85634 88.7929 66.74841 89.68498 66.74841 90.78545ZM64.75586 90.78545"/>
<path transform="matrix(1.00006,0,0,-1.00009,1.5323715,159.00923)" d="M74.45744 111.78343C74.45744 112.88391 73.56535 113.77599 72.46489 113.77599 71.36443 113.77599 70.47234 112.88391 70.47234 111.78343 70.47234 110.68297 71.36443 109.79088 72.46489 109.79088 73.56535 109.79088 74.45744 110.68297 74.45744 111.78343ZM72.46489 111.78343" fill="#008099"/>
<path transform="matrix(1.00006,0,0,-1.00009,1.5323715,159.00923)" stroke-width=".3985" stroke-linecap="butt" stroke-miterlimit="10" stroke-linejoin="miter" fill="none" stroke="#008099" d="M74.45744 111.78343C74.45744 112.88391 73.56535 113.77599 72.46489 113.77599 71.36443 113.77599 70.47234 112.88391 70.47234 111.78343 70.47234 110.68297 71.36443 109.79088 72.46489 109.79088 73.56535 109.79088 74.45744 110.68297 74.45744 111.78343ZM72.46489 111.78343"/>
<path transform="matrix(1.00006,0,0,-1.00009,1.5323715,159.00923)" d="M82.16647 128.66419C82.16647 129.76467 81.27438 130.65674 80.17392 130.65674 79.07344 130.65674 78.18137 129.76467 78.18137 128.66419 78.18137 127.56372 79.07344 126.67163 80.17392 126.67163 81.27438 126.67163 82.16647 127.56372 82.16647 128.66419ZM80.17392 128.66419" fill="#008099"/>
<path transform="matrix(1.00006,0,0,-1.00009,1.5323715,159.00923)" stroke-width=".3985" stroke-linecap="butt" stroke-miterlimit="10" stroke-linejoin="miter" fill="none" stroke="#008099" d="M82.16647 128.66419C82.16647 129.76467 81.27438 130.65674 80.17392 130.65674 79.07344 130.65674 78.18137 129.76467 78.18137 128.66419 78.18137 127.56372 79.07344 126.67163 80.17392 126.67163 81.27438 126.67163 82.16647 127.56372 82.16647 128.66419ZM80.17392 128.66419"/>
<path transform="matrix(1.00006,0,0,-1.00009,1.5323715,159.00923)" d="M89.87552 141.42769C89.87552 142.52817 88.98343 143.42024 87.88297 143.42024 86.78249 143.42024 85.89041 142.52817 85.89041 141.42769 85.89041 140.32723 86.78249 139.43514 87.88297 139.43514 88.98343 139.43514 89.87552 140.32723 89.87552 141.42769ZM87.88297 141.42769" fill="#008099"/>
<path transform="matrix(1.00006,0,0,-1.00009,1.5323715,159.00923)" stroke-width=".3985" stroke-linecap="butt" stroke-miterlimit="10" stroke-linejoin="miter" fill="none" stroke="#008099" d="M89.87552 141.42769C89.87552 142.52817 88.98343 143.42024 87.88297 143.42024 86.78249 143.42024 85.89041 142.52817 85.89041 141.42769 85.89041 140.32723 86.78249 139.43514 87.88297 139.43514 88.98343 139.43514 89.87552 140.32723 89.87552 141.42769ZM87.88297 141.42769"/>
<path transform="matrix(1.00006,0,0,-1.00009,1.5323715,159.00923)" d="M97.58455 150.07392C97.58455 151.17438 96.69246 152.06647 95.592 152.06647 94.49152 152.06647 93.59944 151.17438 93.59944 150.07392 93.59944 148.97344 94.49152 148.08136 95.592 148.08136 96.69246 148.08136 97.58455 148.97344 97.58455 150.07392ZM95.592 150.07392" fill="#008099"/>
<path transform="matrix(1.00006,0,0,-1.00009,1.5323715,159.00923)" stroke-width=".3985" stroke-linecap="butt" stroke-miterlimit="10" stroke-linejoin="miter" fill="none" stroke="#008099" d="M97.58455 150.07392C97.58455 151.17438 96.69246 152.06647 95.592 152.06647 94.49152 152.06647 93.59944 151.17438 93.59944 150.07392 93.59944 148.97344 94.49152 148.08136 95.592 148.08136 96.69246 148.08136 97.58455 148.97344 97.58455 150.07392ZM95.592 150.07392"/>
<path transform="matrix(1.00006,0,0,-1.00009,1.5323715,159.00923)" d="M105.29358 154.60288C105.29358 155.70336 104.40149 156.59543 103.30103 156.59543 102.20055 156.59543 101.30847 155.70336 101.30847 154.60288 101.30847 153.50241 102.20055 152.61032 103.30103 152.61032 104.40149 152.61032 105.29358 153.50241 105.29358 154.60288ZM103.30103 154.60288" fill="#008099"/>
<path transform="matrix(1.00006,0,0,-1.00009,1.5323715,159.00923)" stroke-width=".3985" stroke-linecap="butt" stroke-miterlimit="10" stroke-linejoin="miter" fill="none" stroke="#008099" d="M105.29358 154.60288C105.29358 155.70336 104.40149 156.59543 103.30103 156.59543 102.20055 156.59543 101.30847 155.70336 101.30847 154.60288 101.30847 153.50241 102.20055 152.61032 103.30103 152.61032 104.40149 152.61032 105.29358 153.50241 105.29358 154.60288ZM103.30103 154.60288"/>
<path transform="matrix(1.00006,0,0,-1.00009,1.5323715,159.00923)" d="M113.00261 155.0146C113.00261 156.11507 112.11052 157.00716 111.01006 157.00716 109.90958 157.00716 109.0175 156.11507 109.0175 155.0146 109.0175 153.91413 109.90958 153.02205 111.01006 153.02205 112.11052 153.02205 113.00261 153.91413 113.00261 155.0146ZM111.01006 155.0146" fill="#008099"/>
<path transform="matrix(1.00006,0,0,-1.00009,1.5323715,159.00923)" stroke-width=".3985" stroke-linecap="butt" stroke-miterlimit="10" stroke-linejoin="miter" fill="none" stroke="#008099" d="M113.00261 155.0146C113.00261 156.11507 112.11052 157.00716 111.01006 157.00716 109.90958 157.00716 109.0175 156.11507 109.0175 155.0146 109.0175 153.91413 109.90958 153.02205 111.01006 153.02205 112.11052 153.02205 113.00261 153.91413 113.00261 155.0146ZM111.01006 155.0146"/>
<path transform="matrix(1.00006,0,0,-1.00009,1.5323715,159.00923)" d="M120.71165 151.30904C120.71165 152.40952 119.81956 153.30159 118.7191 153.30159 117.61862 153.30159 116.72655 152.40952 116.72655 151.30904 116.72655 150.20858 117.61862 149.31649 118.7191 149.31649 119.81956 149.31649 120.71165 150.20858 120.71165 151.30904ZM118.7191 151.30904" fill="#008099"/>
<path transform="matrix(1.00006,0,0,-1.00009,1.5323715,159.00923)" stroke-width=".3985" stroke-linecap="butt" stroke-miterlimit="10" stroke-linejoin="miter" fill="none" stroke="#008099" d="M120.71165 151.30904C120.71165 152.40952 119.81956 153.30159 118.7191 153.30159 117.61862 153.30159 116.72655 152.40952 116.72655 151.30904 116.72655 150.20858 117.61862 149.31649 118.7191 149.31649 119.81956 149.31649 120.71165 150.20858 120.71165 151.30904ZM118.7191 151.30904"/>
<path transform="matrix(1.00006,0,0,-1.00009,1.5323715,159.00923)" d="M128.42069 143.48627C128.42069 144.58673 127.5286 145.47882 126.42813 145.47882 125.32765 145.47882 124.43558 144.58673 124.43558 143.48627 124.43558 142.3858 125.32765 141.49372 126.42813 141.49372 127.5286 141.49372 128.42069 142.3858 128.42069 143.48627ZM126.42813 143.48627" fill="#008099"/>
<path transform="matrix(1.00006,0,0,-1.00009,1.5323715,159.00923)" stroke-width=".3985" stroke-linecap="butt" stroke-miterlimit="10" stroke-linejoin="miter" fill="none" stroke="#008099" d="M128.42069 143.48627C128.42069 144.58673 127.5286 145.47882 126.42813 145.47882 125.32765 145.47882 124.43558 144.58673 124.43558 143.48627 124.43558 142.3858 125.32765 141.49372 126.42813 141.49372 127.5286 141.49372 128.42069 142.3858 128.42069 143.48627ZM126.42813 143.48627"/>
<path transform="matrix(1.00006,0,0,-1.00009,1.5323715,159.00923)" d="M136.12972 131.5463C136.12972 132.64678 135.23763 133.53885 134.13716 133.53885 133.03668 133.53885 132.1446 132.64678 132.1446 131.5463 132.1446 130.44583 133.03668 129.55374 134.13716 129.55374 135.23763 129.55374 136.12972 130.44583 136.12972 131.5463ZM134.13716 131.5463" fill="#008099"/>
<path transform="matrix(1.00006,0,0,-1.00009,1.5323715,159.00923)" stroke-width=".3985" stroke-linecap="butt" stroke-miterlimit="10" stroke-linejoin="miter" fill="none" stroke="#008099" d="M136.12972 131.5463C136.12972 132.64678 135.23763 133.53885 134.13716 133.53885 133.03668 133.53885 132.1446 132.64678 132.1446 131.5463 132.1446 130.44583 133.03668 129.55374 134.13716 129.55374 135.23763 129.55374 136.12972 130.44583 136.12972 131.5463ZM134.13716 131.5463"/>
<path transform="matrix(1.00006,0,0,-1.00009,1.5323715,159.00923)" d="M143.83875 115.48888C143.83875 116.58934 142.94666 117.48143 141.84619 117.48143 140.74571 117.48143 139.85364 116.58934 139.85364 115.48888 139.85364 114.3884 140.74571 113.49632 141.84619 113.49632 142.94666 113.49632 143.83875 114.3884 143.83875 115.48888ZM141.84619 115.48888" fill="#008099"/>
<path transform="matrix(1.00006,0,0,-1.00009,1.5323715,159.00923)" stroke-width=".3985" stroke-linecap="butt" stroke-miterlimit="10" stroke-linejoin="miter" fill="none" stroke="#008099" d="M143.83875 115.48888C143.83875 116.58934 142.94666 117.48143 141.84619 117.48143 140.74571 117.48143 139.85364 116.58934 139.85364 115.48888 139.85364 114.3884 140.74571 113.49632 141.84619 113.49632 142.94666 113.49632 143.83875 114.3884 143.83875 115.48888ZM141.84619 115.48888"/>
<path transform="matrix(1.00006,0,0,-1.00009,1.5323715,159.00923)" d="M151.54779 95.31429C151.54779 96.41475 150.6557 97.30684 149.55524 97.30684 148.45476 97.30684 147.56269 96.41475 147.56269 95.31429 147.56269 94.2138 148.45476 93.32173 149.55524 93.32173 150.6557 93.32173 151.54779 94.2138 151.54779 95.31429ZM149.55524 95.31429" fill="#008099"/>
<path transform="matrix(1.00006,0,0,-1.00009,1.5323715,159.00923)" stroke-width=".3985" stroke-linecap="butt" stroke-miterlimit="10" stroke-linejoin="miter" fill="none" stroke="#008099" d="M151.54779 95.31429C151.54779 96.41475 150.6557 97.30684 149.55524 97.30684 148.45476 97.30684 147.56269 96.41475 147.56269 95.31429 147.56269 94.2138 148.45476 93.32173 149.55524 93.32173 150.6557 93.32173 151.54779 94.2138 151.54779 95.31429ZM149.55524 95.31429"/>
<path transform="matrix(1.00006,0,0,-1.00009,1.5323715,159.00923)" d="M159.25682 71.02237C159.25682 72.12285 158.36473 73.01492 157.26427 73.01492 156.16379 73.01492 155.27172 72.12285 155.27172 71.02237 155.27172 69.9219 156.16379 69.02982 157.26427 69.02982 158.36473 69.02982 159.25682 69.9219 159.25682 71.02237ZM157.26427 71.02237" fill="#008099"/>
<path transform="matrix(1.00006,0,0,-1.00009,1.5323715,159.00923)" stroke-width=".3985" stroke-linecap="butt" stroke-miterlimit="10" stroke-linejoin="miter" fill="none" stroke="#008099" d="M159.25682 71.02237C159.25682 72.12285 158.36473 73.01492 157.26427 73.01492 156.16379 73.01492 155.27172 72.12285 155.27172 71.02237 155.27172 69.9219 156.16379 69.02982 157.26427 69.02982 158.36473 69.02982 159.25682 69.9219 159.25682 71.02237ZM157.26427 71.02237"/>
<path transform="matrix(1.00006,0,0,-1.00009,1.5323715,159.00923)" d="M166.96585 42.61345C166.96585 43.71391 166.07376 44.606 164.9733 44.606 163.87282 44.606 162.98075 43.71391 162.98075 42.61345 162.98075 41.51297 163.87282 40.6209 164.9733 40.6209 166.07376 40.6209 166.96585 41.51297 166.96585 42.61345ZM164.9733 42.61345" fill="#008099"/>
<path transform="matrix(1.00006,0,0,-1.00009,1.5323715,159.00923)" stroke-width=".3985" stroke-linecap="butt" stroke-miterlimit="10" stroke-linejoin="miter" fill="none" stroke="#008099" d="M166.96585 42.61345C166.96585 43.71391 166.07376 44.606 164.9733 44.606 163.87282 44.606 162.98075 43.71391 162.98075 42.61345 162.98075 41.51297 163.87282 40.6209 164.9733 40.6209 166.07376 40.6209 166.96585 41.51297 166.96585 42.61345ZM164.9733 42.61345"/>
<path transform="matrix(1.00006,0,0,-1.00009,1.5323715,159.00923)" d="M174.67488 10.0871C174.67488 11.18758 173.78279 12.07965 172.68233 12.07965 171.58185 12.07965 170.68978 11.18758 170.68978 10.0871 170.68978 8.98663 171.58185 8.09454 172.68233 8.09454 173.78279 8.09454 174.67488 8.98663 174.67488 10.0871ZM172.68233 10.0871" fill="#008099"/>
<path transform="matrix(1.00006,0,0,-1.00009,1.5323715,159.00923)" stroke-width=".3985" stroke-linecap="butt" stroke-miterlimit="10" stroke-linejoin="miter" fill="none" stroke="#008099" d="M174.67488 10.0871C174.67488 11.18758 173.78279 12.07965 172.68233 12.07965 171.58185 12.07965 170.68978 11.18758 170.68978 10.0871 170.68978 8.98663 171.58185 8.09454 172.68233 8.09454 173.78279 8.09454 174.67488 8.98663 174.67488 10.0871ZM172.68233 10.0871"/>
<path transform="matrix(1.00006,0,0,-1.00009,1.5323715,159.00923)" stroke-width=".3985" stroke-linecap="butt" stroke-miterlimit="10" stroke-linejoin="miter" fill="none" stroke="#008099" d=""/>
</svg>
