<svg xmlns="http://www.w3.org/2000/svg" xmlns:xlink="http://www.w3.org/1999/xlink" xmlns:inkscape="http://www.inkscape.org/namespaces/inkscape" version="1.1" width="211" height="97" viewBox="0 0 211 97">
<defs>
<path id="font_1_1" d="M.2829895 .6169281C.2829895 .6569519 .30899049 .72099307 .41799928 .7279968 .4229889 .72898867 .4269867 .73298647 .4269867 .7389984 .4269867 .75 .4189911 .75 .4079895 .75 .30799867 .75 .21699524 .6989746 .21598816 .62493899V.3968048C.21598816 .3577881 .21598816 .32577516 .17599488 .29275514 .14099121 .2637329 .102996829 .261734 .08099365 .2607422 .07598877 .2597351 .07199097 .2557373 .07199097 .2497406 .07199097 .23973084 .07798767 .23973084 .08799744 .23873902 .1539917 .23474121 .20199585 .19876099 .21299744 .14978028 .21598816 .13879395 .21598816 .13679505 .21598816 .10081482V-.097076419C.21598816-.13905335 .21598816-.17103577 .2639923-.2090149 .30299378-.23901367 .36898805-.25 .4079895-.25 .4189911-.25 .4269867-.25 .4269867-.23901367 .4269867-.2290039 .42099-.2290039 .41099549-.22801209 .34799195-.22401428 .29899598-.19203186 .28599549-.14105225 .2829895-.13206482 .2829895-.13006592 .2829895-.09408569V.11579895C.2829895 .16177368 .2749939 .17877198 .24299622 .2107544 .22200012 .23173523 .19299317 .24172974 .16499329 .2497406 .24699402 .2727356 .2829895 .31877137 .2829895 .37680055V.6169281Z"/>
<path id="font_2_2" d="M.1769867 .4423828 .036987306 .43138124V.40037538C.101989749 .40037538 .11099243 .3943634 .11099243 .34532167V.076034549C.11099243 .0309906 .099990848 .0309906 .032989503 .0309906V0C.06498718 .0009918213 .11898804 .0029907227 .14299011 .0029907227 .17799378 .0029907227 .21299744 .0009918213 .24699402 0V.0309906C.18099976 .0309906 .1769867 .035995485 .1769867 .075042728V.4423828M.18099976 .6159363C.18099976 .64793398 .1559906 .6689453 .12799073 .6689453 .09700012 .6689453 .07499695 .64193728 .07499695 .6159363 .07499695 .5889435 .09700012 .5629425 .12799073 .5629425 .1559906 .5629425 .18099976 .5839386 .18099976 .6159363Z"/>
<path id="font_2_1" d="M.37998963 .055252077V-.0107421879L.5269928 .00024414063V.03125C.45700074 .03125 .44898988 .038253786 .44898988 .087265018V.69433596L.30499269 .68333438V.6523285C.375 .6523285 .3829956 .6453247 .3829956 .596344V.38035584C.35398866 .41636659 .31098939 .4423828 .25698854 .4423828 .13899231 .4423828 .033996583 .3443451 .033996583 .21531677 .033996583 .088272098 .13198853-.0107421879 .24598694-.0107421879 .30999757-.0107421879 .35499574 .023254395 .37998963 .055252077M.37998963 .323349V.118270877C.37998963 .1002655 .37998963 .0982666 .36898805 .08126831 .33898927 .0332489 .2939911 .011245728 .25099183 .011245728 .20599365 .011245728 .16999817 .037246705 .1459961 .07527161 .11999512 .11627197 .116989139 .17329407 .116989139 .21430969 .116989139 .25131227 .11898804 .31134034 .147995 .35635377 .16899109 .38735963 .20698548 .42037965 .26098634 .42037965 .29599 .42037965 .33799745 .405365 .36898805 .36035157 .37998963 .34335328 .37998963 .34135438 .37998963 .323349Z"/>
<path id="font_3_3" d="M.20298767 .0009918213C.20298767 .066986087 .17799378 .10598755 .13899231 .10598755 .10598755 .10598755 .085998538 .08099365 .085998538 .052993776 .085998538 .025985718 .10598755 0 .13899231 0 .15098572 0 .1639862 .0039978029 .17399597 .0129852299 .1769867 .01499939 .17799378 .015991211 .1789856 .015991211 .17999268 .015991211 .18099976 .01499939 .18099976 .0009918213 .18099976-.07316589 .1459961-.13328552 .11299133-.16635132 .101989749-.17736817 .101989749-.17936707 .101989749-.18237305 .101989749-.18936157 .10699463-.19335938 .11199951-.19335938 .12298584-.19335938 .20298767-.116256717 .20298767 .0009918213Z"/>
<path id="font_3_2" d="M.032989503-.17282105C.02999878-.18482971 .02999878-.18682862 .02999878-.18882752 .02999878-.2038269 .040985109-.21582031 .057998659-.21582031 .07899475-.21582031 .09098816-.1978302 .09298706-.19482422 .09799194-.18582154 .12998963-.05177307 .15699768 .056259157 .1769867 .01625061 .20899964-.0107421879 .2559967-.0107421879 .37298585-.0107421879 .5019989 .13027954 .5019989 .2793274 .5019989 .38536073 .43598939 .4423828 .36299134 .4423828 .2659912 .4423828 .16099549 .3423462 .1309967 .2203064L.032989503-.17282105M.25498963 .011245728C.18499756 .011245728 .16899109 .091278079 .16899109 .10028076 .16899109 .104278568 .17399597 .12428284 .1769867 .13728333 .20498657 .24932862 .21499634 .28533937 .23699951 .3253479 .27999879 .3983612 .32998658 .42037965 .36099244 .42037965 .397995 .42037965 .42999269 .39135743 .42999269 .32234193 .42999269 .26733399 .40098573 .1552887 .37399293 .106277469 .34098817 .043258668 .29299928 .011245728 .25498963 .011245728Z"/>
<path id="font_4_1" d="M.33499146 .63612368C.33499146 .6630554 .33299256 .6640625 .30499269 .6640625 .24099732 .6014404 .1499939 .6004486 .10899353 .6004486V.5644531C.1329956 .5644531 .19898987 .5644531 .2539978 .592453V.08203125C.2539978 .04899597 .2539978 .035995485 .1539917 .035995485H.115997318V0C.13398743 .0009918213 .25698854 .0039978029 .2939911 .0039978029 .32499696 .0039978029 .45098878 .0009918213 .47299195 0V.035995485H.43499757C.33499146 .035995485 .33499146 .04899597 .33499146 .08203125V.63612368Z"/>
<path id="font_4_2" d="M.5049896 .18203736H.47099305C.46798707 .16001892 .45799256 .100997928 .44499208 .09098816 .43699647 .084991458 .3600006 .084991458 .34599305 .084991458H.1619873C.2669983 .17803955 .3019867 .20603943 .3619995 .25306703 .43598939 .312088 .5049896 .374115 .5049896 .46914674 .5049896 .5900879 .39898683 .6640625 .2709961 .6640625 .14698792 .6640625 .06298828 .57710269 .06298828 .4851532 .06298828 .43414308 .10598755 .42915345 .115997318 .42915345 .13999939 .42915345 .16899109 .44615174 .16899109 .48214723 .16899109 .5001526 .1619873 .53515627 .10998535 .53515627 .14099121 .6060791 .20899964 .62805178 .2559967 .62805178 .35598756 .62805178 .4079895 .5501404 .4079895 .46914674 .4079895 .38212586 .34599305 .3130951 .31399537 .27708436L.07299805 .038986207C.06298828 .02999878 .06298828 .027999878 .06298828 0H.47499085L.5049896 .18203736Z"/>
<path id="font_1_2" d="M.21598816-.11706543C.21598816-.15704346 .18998719-.2210083 .08099365-.22801209 .07598877-.2290039 .07199097-.23300171 .07199097-.23901367 .07199097-.25 .08299255-.25 .09199524-.25 .18899536-.25 .28199769-.20101929 .2829895-.12506104V.10282898C.2829895 .14179993 .2829895 .17378235 .32299806 .20677185 .35798646 .23576355 .3959961 .23776245 .41799928 .23875427 .4229889 .23976135 .4269867 .24375916 .4269867 .24975586 .4269867 .25976563 .42099 .25976563 .41099549 .26075746 .34498597 .26475526 .29699708 .30078126 .28599549 .34980775 .2829895 .36080934 .2829895 .36280824 .2829895 .39883424V.5969238C.2829895 .63894656 .2829895 .6709595 .23498535 .7089844 .19499207 .73999026 .12599182 .75 .09199524 .75 .08299255 .75 .07199097 .75 .07199097 .7389984 .07199097 .72898867 .07798767 .72898867 .08799744 .72798159 .15098572 .72398379 .19999695 .6919708 .21299744 .64094546 .21598816 .63194277 .21598816 .62994387 .21598816 .59391787V.38381959C.21598816 .33779908 .22399903 .32078553 .2559967 .28877259 .2769928 .26776124 .30599977 .25775147 .33399964 .24975586 .2519989 .22676087 .21598816 .18078614 .21598816 .12281799V-.11706543Z"/>
<path id="font_3_1" d="M.23098755 .35134889C.23599243 .37236024 .24598694 .41036988 .24598694 .41537477 .24598694 .43237306 .23399353 .4423828 .21699524 .4423828 .21398926 .4423828 .18598938 .44137574 .1769867 .40637208L.032989503-.17282105C.02999878-.18482971 .02999878-.18682862 .02999878-.18882752 .02999878-.2038269 .040985109-.21582031 .057998659-.21582031 .07899475-.21582031 .09098816-.1978302 .09298706-.19482422 .09700012-.18582154 .10998535-.13380432 .147995 .020248414 .17999268-.0067443849 .22499085-.0107421879 .24499512-.0107421879 .31498719-.0107421879 .35398866 .03425598 .37799073 .06227112 .3869934 .01725769 .42399598-.0107421879 .46798707-.0107421879 .5029907-.0107421879 .526001 .012252808 .5419922 .044265748 .5589905 .08027649 .57199099 .14129639 .57199099 .14329529 .57199099 .1532898 .5629883 .1532898 .55999758 .1532898 .5499878 .1532898 .548996 .14929199 .54599 .13528443 .5289917 .07026672 .5109863 .011245728 .46998597 .011245728 .44299317 .011245728 .43998719 .037261964 .43998719 .057266237 .43998719 .07926941 .45199586 .12628174 .45999146 .16130066L.48799134 .2693329C.4909973 .28433229 .5009918 .32234193 .5049896 .3373413 .5099945 .36035157 .519989 .3983612 .519989 .40437318 .519989 .42237855 .5059967 .43138124 .4909973 .43138124 .48599244 .43138124 .45999146 .43037416 .45199586 .3963623L.40499879 .20930481C.3929901 .15930176 .38198854 .11727905 .3789978 .107284549 .37799073 .10227966 .32998658 .011245728 .24899292 .011245728 .19898987 .011245728 .1749878 .044265748 .1749878 .09828186 .1749878 .12728882 .18199158 .1552887 .18899536 .18330384L.23098755 .35134889Z"/>
<path id="font_4_3" d="M.272995 .33428956C.35099793 .33428956 .40699769 .2803192 .40699769 .1733551 .40699769 .04940796 .33499146 .012466431 .2769928 .012466431 .23699951 .012466431 .14898682 .0234375 .10699463 .082351688 .1539917 .084350589 .16499329 .11735535 .16499329 .13835144 .16499329 .17034912 .14099121 .19335938 .10998535 .19335938 .08198547 .19335938 .053985597 .17634583 .053985597 .13534546 .053985597 .041412355 .1579895-.01953125 .2789917-.01953125 .41799928-.01953125 .5139923 .07336426 .5139923 .1733551 .5139923 .2513275 .44999696 .32929994 .33999635 .35229493 .44499208 .39024354 .48298646 .4650879 .48298646 .5260773 .48298646 .60505679 .3919983 .6640625 .2809906 .6640625 .16999817 .6640625 .084991458 .61006167 .084991458 .5300751 .084991458 .49606324 .10699463 .47706605 .13699341 .47706605 .16799927 .47706605 .18798828 .5000763 .18798828 .5280762 .18798828 .5570679 .16799927 .57806399 .13699341 .5800781 .17199707 .62405398 .24099732 .63505557 .27799989 .63505557 .32299806 .63505557 .38598634 .6130676 .38598634 .5260773 .38598634 .48406983 .37199403 .43814088 .34599305 .4072113 .31298829 .36927796 .2849884 .3672943 .23498535 .36428834 .20999146 .3623047 .20799256 .3623047 .20298767 .3612976 .20098877 .3612976 .19299317 .3592987 .19299317 .34829713 .19299317 .33428956 .20199585 .33428956 .21899414 .33428956H.272995Z"/>
<path id="font_3_4" d="M.644989 .69506838C.644989 .69807437 .6429901 .7050781 .6339874 .7050781 .6289978 .7050781 .6279907 .70407107 .6159973 .6900635L.56799319 .6330414C.5419922 .68006899 .48999024 .7050781 .4249878 .7050781 .2979889 .7050781 .17799378 .58999636 .17799378 .4689026 .17799378 .38783265 .23098755 .34179688 .28199769 .32678224L.3889923 .2987671C.42599488 .2897644 .48098756 .27474977 .48098756 .19267273 .48098756 .1026001 .39898683 .008529663 .30099488 .008529663 .23699951 .008529663 .12599182 .030548096 .12599182 .15464783 .12599182 .17866516 .1309967 .2026825 .13198853 .20869446 .1329956 .21269226 .13398743 .21369934 .13398743 .21569824 .13398743 .22570801 .1269989 .22669983 .12199402 .22669983 .116989139 .22669983 .114990238 .22570801 .11199951 .22270203 .10798645 .21870423 .051986696-.009475708 .051986696-.012466431 .051986696-.018463135 .056991579-.022460938 .06298828-.022460938 .067993167-.022460938 .068984989-.021469117 .08099365-.007461548L.12998963 .049560548C.17298889-.008468628 .24099732-.022460938 .29899598-.022460938 .43499757-.022460938 .5529938 .11061096 .5529938 .2347107 .5529938 .30377198 .5189972 .33779908 .5039978 .35180665 .48098756 .37483216 .46598817 .37882997 .3769989 .40185548 .35499574 .40785218 .31900025 .41786195 .30999757 .41986085 .2829895 .42886354 .24899292 .457901 .24899292 .51094058 .24899292 .59199526 .32899476 .677063 .42399598 .677063 .5069885 .677063 .56799319 .6340332 .56799319 .52194216 .56799319 .48991395 .56399539 .47190858 .56399539 .4658966 .56399539 .4649048 .56399539 .45588685 .57598879 .45588685 .58599856 .45588685 .58699038 .45889283 .59098818 .47590638L.644989 .69506838Z"/>
</defs>
<path transform="matrix(1.00006,0,0,-1.00003,23.399567,47.59207)" stroke-width=".3985" stroke-linecap="butt" stroke-miterlimit="10" stroke-linejoin="miter" fill="none" stroke="#000000" d="M0 8.50412 73.70186 34.01608"/>
<path transform="matrix(1.00006,0,0,-1.00003,23.399567,47.59207)" stroke-width=".3985" stroke-linecap="butt" stroke-miterlimit="10" stroke-linejoin="miter" fill="none" stroke="#000000" d="M56.69362 8.50412 79.37114 34.01608"/>
<path transform="matrix(1.00006,0,0,-1.00003,23.399567,47.59207)" stroke-width=".3985" stroke-linecap="butt" stroke-miterlimit="10" stroke-linejoin="miter" fill="none" stroke="#000000" d="M113.38724 8.50412 90.7097 34.01608"/>
<path transform="matrix(1.00006,0,0,-1.00003,23.399567,47.59207)" stroke-width=".3985" stroke-linecap="butt" stroke-miterlimit="10" stroke-linejoin="miter" fill="none" stroke="#000000" d="M170.08086 8.50412 96.37897 34.01608"/>
<path transform="matrix(1.00006,0,0,-1.00003,23.399567,47.59207)" stroke-width=".3985" stroke-linecap="butt" stroke-miterlimit="10" stroke-linejoin="miter" fill="none" stroke="#000000" d="M0-8.50412 73.70186-34.01608"/>
<path transform="matrix(1.00006,0,0,-1.00003,23.399567,47.59207)" stroke-width=".3985" stroke-linecap="butt" stroke-miterlimit="10" stroke-linejoin="miter" fill="none" stroke="#000000" d="M56.69362-8.50412 79.37114-34.01608"/>
<path transform="matrix(1.00006,0,0,-1.00003,23.399567,47.59207)" stroke-width=".3985" stroke-linecap="butt" stroke-miterlimit="10" stroke-linejoin="miter" fill="none" stroke="#000000" d="M113.38724-8.50412 90.7097-34.01608"/>
<path transform="matrix(1.00006,0,0,-1.00003,23.399567,47.59207)" stroke-width=".3985" stroke-linecap="butt" stroke-miterlimit="10" stroke-linejoin="miter" fill="none" stroke="#000000" d="M170.08086-8.50412 96.37897-34.01608"/>
<use data-text="{" xlink:href="#font_1_1" transform="matrix(9.963197,0,0,-9.962899,.21717835,50.083147)"/>
<use data-text="i" xlink:href="#font_2_2" transform="matrix(9.963197,0,0,-9.962899,5.1984789,50.083147)"/>
<use data-text="d" xlink:href="#font_2_1" transform="matrix(9.963197,0,0,-9.962899,7.95829,50.083147)"/>
<use data-text="," xlink:href="#font_3_3" transform="matrix(9.963197,0,0,-9.962899,13.500977,50.083147)"/>
<use data-text="&#x03c1;" xlink:href="#font_3_2" transform="matrix(9.963197,0,0,-9.962899,17.91468,50.083147)"/>
<use data-text="1" xlink:href="#font_4_1" transform="matrix(6.9742186,0,0,-6.9740097,23.080559,51.57819)"/>
<use data-text="," xlink:href="#font_3_3" transform="matrix(9.963197,0,0,-9.962899,27.549813,50.083147)"/>
<use data-text="&#x03c1;" xlink:href="#font_3_2" transform="matrix(9.963197,0,0,-9.962899,31.963524,50.083147)"/>
<use data-text="2" xlink:href="#font_4_2" transform="matrix(6.9742186,0,0,-6.9740097,37.129388,51.57819)"/>
<use data-text="}" xlink:href="#font_1_2" transform="matrix(9.963197,0,0,-9.962899,41.598657,50.083147)"/>
<use data-text="{" xlink:href="#font_1_1" transform="matrix(9.963197,0,0,-9.962899,63.51297,50.083147)"/>
<use data-text="i" xlink:href="#font_2_2" transform="matrix(9.963197,0,0,-9.962899,68.49427,50.083147)"/>
<use data-text="d" xlink:href="#font_2_1" transform="matrix(9.963197,0,0,-9.962899,71.25408,50.083147)"/>
<use data-text="," xlink:href="#font_3_3" transform="matrix(9.963197,0,0,-9.962899,76.79677,50.083147)"/>
<use data-text="&#x00b5;" xlink:href="#font_3_1" transform="matrix(9.963197,0,0,-9.962899,81.21047,50.083147)"/>
<use data-text="1" xlink:href="#font_4_1" transform="matrix(6.9742186,0,0,-6.9740097,87.228389,51.57819)"/>
<use data-text="}" xlink:href="#font_1_2" transform="matrix(9.963197,0,0,-9.962899,91.697658,50.083147)"/>
<use data-text="{" xlink:href="#font_1_1" transform="matrix(9.963197,0,0,-9.962899,120.21037,50.083147)"/>
<use data-text="i" xlink:href="#font_2_2" transform="matrix(9.963197,0,0,-9.962899,125.19167,50.083147)"/>
<use data-text="d" xlink:href="#font_2_1" transform="matrix(9.963197,0,0,-9.962899,127.951488,50.083147)"/>
<use data-text="," xlink:href="#font_3_3" transform="matrix(9.963197,0,0,-9.962899,133.49417,50.083147)"/>
<use data-text="&#x00b5;" xlink:href="#font_3_1" transform="matrix(9.963197,0,0,-9.962899,137.90787,50.083147)"/>
<use data-text="2" xlink:href="#font_4_2" transform="matrix(6.9742186,0,0,-6.9740097,143.92578,51.57819)"/>
<use data-text="}" xlink:href="#font_1_2" transform="matrix(9.963197,0,0,-9.962899,148.39505,50.083147)"/>
<use data-text="{" xlink:href="#font_1_1" transform="matrix(9.963197,0,0,-9.962899,176.90677,50.083147)"/>
<use data-text="i" xlink:href="#font_2_2" transform="matrix(9.963197,0,0,-9.962899,181.88806,50.083147)"/>
<use data-text="d" xlink:href="#font_2_1" transform="matrix(9.963197,0,0,-9.962899,184.64789,50.083147)"/>
<use data-text="," xlink:href="#font_3_3" transform="matrix(9.963197,0,0,-9.962899,190.19057,50.083147)"/>
<use data-text="&#x00b5;" xlink:href="#font_3_1" transform="matrix(9.963197,0,0,-9.962899,194.60428,50.083147)"/>
<use data-text="3" xlink:href="#font_4_3" transform="matrix(6.9742186,0,0,-6.9740097,200.6222,51.57819)"/>
<use data-text="}" xlink:href="#font_1_2" transform="matrix(9.963197,0,0,-9.962899,205.09146,50.083147)"/>
<use data-text="S" xlink:href="#font_3_4" transform="matrix(9.963197,0,0,-9.962899,103.15535,7.7278749)"/>
<use data-text="3" xlink:href="#font_4_3" transform="matrix(6.9742186,0,0,-6.9740097,109.26472,9.222919)"/>
<use data-text="{" xlink:href="#font_1_1" transform="matrix(9.963197,0,0,-9.962899,99.31212,92.60442)"/>
<use data-text="i" xlink:href="#font_2_2" transform="matrix(9.963197,0,0,-9.962899,104.29342,92.60442)"/>
<use data-text="d" xlink:href="#font_2_1" transform="matrix(9.963197,0,0,-9.962899,107.05323,92.60442)"/>
<use data-text="}" xlink:href="#font_1_2" transform="matrix(9.963197,0,0,-9.962899,112.59592,92.60442)"/>
</svg>
