<svg xmlns="http://www.w3.org/2000/svg" xmlns:xlink="http://www.w3.org/1999/xlink" xmlns:inkscape="http://www.inkscape.org/namespaces/inkscape" version="1.1" width="230" height="249" viewBox="0 0 230 249">
<defs>
<path id="font_1_96" d="M.4889984 .37927247C.4889984 .43138124 .42399598 .4423828 .3909912 .4423828 .32199098 .4423828 .28599549 .39227296 .269989 .37026979 .25898744 .42337037 .21998596 .4423828 .18699646 .4423828 .15098572 .4423828 .1309967 .41937257 .114990238 .38926698 .09599304 .34925843 .08299255 .28826905 .08299255 .28826905 .08299255 .27825929 .09298706 .27825929 .09799194 .27825929 .11099243 .27825929 .11199951 .27926637 .116989139 .30126954 .1349945 .3712616 .1539917 .42037965 .18499756 .42037965 .21099854 .42037965 .21099854 .39126588 .21099854 .38026429 .21099854 .36427308 .20799256 .34526063 .20399475 .3292694L.1289978 .029251099C.1269989 .023254395 .12599182 .018249512 .12599182 .015258789 .12599182 .004257202 .13398743-.0107421879 .1539917-.0107421879 .18399048-.0107421879 .19099427 .018249512 .19299317 .026245118L.2579956 .28826905C.25898744 .29125978 .3039856 .42037965 .3899994 .42037965 .394989 .42037965 .4229889 .42037965 .44299317 .40628053 .4079895 .39526368 .40499879 .363266 .40499879 .3582611 .40499879 .34526063 .4139862 .32626344 .43998719 .32626344 .45799256 .32626344 .4889984 .340271 .4889984 .37927247Z"/>
<path id="font_1_50" d="M.46798707 .10432434C.46798707 .10932922 .45999146 .12034607 .45199586 .12034607 .44799806 .12034607 .44699098 .11933899 .43899537 .10932922 .36499024 .015258789 .27598573 .011245728 .25898744 .011245728 .19400025 .011245728 .18299866 .08230591 .18299866 .12133789 .18299866 .15937805 .19299317 .204422 .19999695 .23144531H.23899842C.2689972 .23144531 .33599855 .23443604 .38398744 .25343324 .46299745 .2854309 .46299745 .35040284 .46299745 .35740663 .46299745 .40338136 .42599488 .4423828 .3619995 .4423828 .25698854 .4423828 .11399841 .34140016 .11399841 .16438294 .11399841 .0743103 .1619873-.0107421879 .25698854-.0107421879 .3849945-.0107421879 .46798707 .08930969 .46798707 .10432434M.4249878 .35940553C.4249878 .25343324 .2599945 .25343324 .22698975 .25343324H.20599365C.24899292 .41737367 .35198976 .42037965 .3619995 .42037965 .4019928 .42037965 .4249878 .39338685 .4249878 .35940553Z"/>
<path id="font_1_126" d="M.6119995 .14324951C.6119995 .15324402 .60398867 .15324402 .5970001 .15324402 .58499148 .15324402 .58399966 .1522522 .5779877 .13024903 .56399539 .07424927 .54499819 .011245728 .5109863 .011245728 .4850006 .011245728 .4850006 .038253786 .4850006 .052246095 .4850006 .059249879 .4850006 .07525635 .49198915 .103256229L.6339874 .6712494C.6359863 .6772461 .6369934 .68125918 .6369934 .6842499 .6369934 .6942444 .6289978 .6942444 .61299136 .6942444H.59799197C.57699587 .6942444 .57598879 .69325259 .56999209 .6742554L.5609894 .6392517 .55999758 .6389923C.55999758 .64901736 .5589905 .674057 .519989 .69107058 .49499513 .70207217 .46299745 .7050781 .43598939 .7050781 .2689972 .7050781 .25 .6049347 .21798706 .43066407H.15299988C.13598633 .43066407 .125 .43066407 .125 .4116516 .125 .3996582 .13398743 .3996582 .1499939 .3996582H.21199036L.14199829 .03692627 .11099243-.099990848C.102996829-.1309967 .08999634-.18261719 .053985597-.18261719 .04899597-.18261719 .026992798-.18164063 .01499939-.16497803 .04499817-.1599884 .05899048-.13598633 .05899048-.115997318 .05899048-.09399414 .040985109-.083984378 .024993897-.083984378 0-.083984378-.025009156-.10398865-.025009156-.13899231-.025009156-.18562317 .019989014-.20462036 .053985597-.20462036 .14299011-.20462036 .18798828-.06201172 .21499634 .07989502L.2769928 .3996582H.5019989L.42999269 .11286926C.42900086 .10910034 .4249878 .09312439 .4249878 .07914734 .4249878 .026229859 .46099855-.0107421879 .5089874-.0107421879 .54599-.0107421879 .5669861 .014251709 .58200076 .045196535 .59999087 .08314514 .6119995 .14305115 .6119995 .14305115V.14324951M.5099945 .43066407H.2829895C.29499818 .49375917 .30999757 .57688906 .32499696 .6179657 .34298707 .6690521 .394989 .68307498 .43699647 .68307498 .44499208 .68307498 .48999024 .68307498 .5149994 .664032 .4889984 .6569824 .47599793 .63497927 .47599793 .61598208 .47599793 .5939789 .49398805 .5839844 .5099945 .5839844 .5299988 .5839844 .5469971 .5969696 .5519867 .60697939H.5529938L.5099945 .43066407Z"/>
<path id="font_1_43" d="M.46798707 .10417175C.46798707 .10916138 .45999146 .120147708 .45199586 .120147708 .44799806 .120147708 .44699098 .119155887 .43899537 .10916138 .36499024 .01524353 .27598573 .011245728 .25898744 .011245728 .20498657 .011245728 .17999268 .05621338 .17999268 .114151 .17999268 .16711426 .20698548 .27201844 .23298645 .31999208 .2689972 .3850708 .31900025 .42037965 .3639984 .42037965 .375 .42037965 .41999818 .41836549 .43499757 .37701417 .3849945 .37098695 .3849945 .32798768 .3849945 .32798768 .3849945 .31199647 .3959961 .29599 .4189911 .29599 .44599916 .29599 .46998597 .31799317 .46998597 .35598756 .46998597 .40524293 .4269867 .4423828 .36299134 .4423828 .23899842 .4423828 .10998535 .2999878 .10998535 .15411377 .10998535 .0552063 .16899109-.0107421879 .25698854-.0107421879 .3849945-.0107421879 .46798707 .08917236 .46798707 .10417175Z"/>
<path id="font_1_105" d="M.35598756 .14305115C.35598756 .1530304 .34799195 .1530304 .34098817 .1530304 .32899476 .1530304 .32899476 .15203858 .32099916 .13406372 .30299378 .086135867 .2630005 .011245728 .20599365 .011245728 .1789856 .011245728 .1789856 .036209108 .1789856 .05218506 .1789856 .059173585 .1789856 .075149539 .18598938 .10310364L.2599945 .3996582H.34498597C.3619995 .3996582 .37298585 .3996582 .37298585 .4186554 .37298585 .43066407 .3639984 .43066407 .34799195 .43066407H.2679901L.30499269 .57888796C.30899049 .59291079 .30899049 .5949249 .30899049 .5999298 .30899049 .6209564 .2919922 .62597659 .28199769 .62597659 .25698854 .62597659 .24699402 .6049347 .24299622 .5899048L.20399475 .43066407H.11898804C.101989749 .43066407 .09098816 .43066407 .09098816 .4116516 .09098816 .3996582 .099990848 .3996582 .115997318 .3996582H.19599915L.12399292 .113098148C.12298584 .10910034 .11898804 .09312439 .11898804 .07914734 .11898804 .029220581 .1519928-.0107421879 .20399475-.0107421879 .30499269-.0107421879 .35598756 .13806153 .35598756 .14305115Z"/>
<path id="font_1_66" d="M.33099366 .14329529C.33099366 .1532898 .32299806 .1532898 .31599427 .1532898 .30299378 .1532898 .30299378 .1512909 .29899598 .1362915 .29100038 .107284549 .2639923 .011245728 .20599365 .011245728 .19799805 .011245728 .18399048 .012252808 .18399048 .039260866 .18399048 .06526184 .19699097 .09828186 .20999146 .13528443L.27398683 .30633546C.28399659 .3353424 .28599549 .34335328 .28599549 .36235047 .28599549 .41737367 .24798584 .4423828 .21099854 .4423828 .116989139 .4423828 .08299255 .29333497 .08299255 .28833009 .08299255 .27833558 .09298706 .27833558 .09799194 .27833558 .11099243 .27833558 .11199951 .28033448 .115997318 .29434205 .125 .3273468 .15098572 .42037965 .20899964 .42037965 .21998596 .42037965 .23098755 .41537477 .23098755 .3923645 .23098755 .36836244 .21998596 .33935548 .21299744 .32034303L.18299866 .23731995 .1459961 .1382904C.13198853 .10028076 .12799073 .089279178 .12799073 .0692749 .12799073 .030258179 .1519928-.0107421879 .20399475-.0107421879 .2979889-.0107421879 .33099366 .13928223 .33099366 .14329529M.35798646 .61128237C.35798646 .6322937 .34298707 .6542969 .31298829 .6542969 .2809906 .6542969 .24899292 .623291 .24899292 .59129336 .24899292 .56929019 .2649994 .54829409 .2939911 .54829409 .32598878 .54829409 .35798646 .57928469 .35798646 .61128237Z"/>
<path id="font_1_81" d="M.5089874 .27833558C.5089874 .37335206 .44999696 .4423828 .36299134 .4423828 .23899842 .4423828 .10998535 .30033876 .10998535 .15429688 .10998535 .05126953 .17298889-.0107421879 .2559967-.0107421879 .37998963-.0107421879 .5089874 .13128662 .5089874 .27833558M.43899537 .31733705C.43899537 .2743225 .4169922 .17129517 .3849945 .11128235 .35598756 .056259157 .30499269 .011245728 .2559967 .011245728 .21699524 .011245728 .17999268 .042266847 .17999268 .11428833 .17999268 .16429138 .20599365 .2753296 .23799134 .3293457 .2749939 .3903656 .32299806 .42037965 .3619995 .42037965 .41099549 .42037965 .43899537 .37635804 .43899537 .31733705Z"/>
<path id="font_1_77" d="M.58599856 .14329529C.58599856 .1532898 .5779877 .1532898 .57099917 .1532898 .55799868 .1532898 .55799868 .1512909 .55400088 .1362915 .54599 .10928345 .5189972 .011245728 .46099855 .011245728 .43998719 .011245728 .43899537 .026260376 .43899537 .040252687 .43899537 .06526184 .44898988 .091278079 .45700074 .11528015 .47698976 .16830445 .5179901 .28033448 .5179901 .3383484 .5179901 .42037965 .46299745 .4423828 .4139862 .4423828 .33198548 .4423828 .28399659 .38235475 .2709961 .36335755 .2639923 .41236878 .22999573 .4423828 .18699646 .4423828 .15098572 .4423828 .1309967 .41937257 .114990238 .38935853 .09599304 .34934999 .08299255 .28833009 .08299255 .28833009 .08299255 .27833558 .09298706 .27833558 .09799194 .27833558 .11099243 .27833558 .11199951 .2793274 .116989139 .30133058 .1349945 .37135316 .1539917 .42037965 .18499756 .42037965 .21099854 .42037965 .21099854 .39135743 .21099854 .38035584 .21099854 .36434938 .20799256 .34535218 .20399475 .3293457L.1289978 .029251099C.1269989 .023254395 .12599182 .018249512 .12599182 .015258789 .12599182 .004257202 .13398743-.0107421879 .1539917-.0107421879 .1659851-.0107421879 .18299866-.003753662 .18998719 .015258789L.22999573 .17529297C.23498535 .1973114 .24099732 .2183075 .24598694 .24032593 .25898744 .29133607 .25898744 .29232789 .27598573 .3213501 .2899933 .34535218 .33499146 .42037965 .41099549 .42037965 .45498658 .42037965 .45700074 .3753662 .45700074 .35435487 .45700074 .29232789 .41299439 .17329407 .39898683 .13328552 .38598634 .09927368 .3829956 .090270999 .3829956 .0692749 .3829956 .025253296 .41099549-.0107421879 .45899964-.0107421879 .5519867-.0107421879 .58599856 .1382904 .58599856 .14329529Z"/>
<path id="font_1_63" d="M.5349884 .14329529C.5349884 .1532898 .5269928 .1532898 .519989 .1532898 .5069885 .1532898 .5069885 .1512909 .5029907 .1362915 .49499513 .10928345 .46798707 .011245728 .4099884 .011245728 .3889923 .011245728 .3880005 .026260376 .3880005 .040252687 .3880005 .06526184 .397995 .091278079 .4059906 .11528015 .42599488 .16830445 .46699525 .28033448 .46699525 .3383484 .46699525 .42037965 .4119873 .4423828 .36299134 .4423828 .29599 .4423828 .26098634 .4073639 .22999573 .3773651L.30299378 .6693268C.3039856 .67233279 .30599977 .6823273 .30599977 .6823273 .30599977 .69132998 .2999878 .69433596 .2919922 .69433596 .2889862 .69433596 .2789917 .69332888 .27598573 .6923218L.1769867 .6843262C.16499329 .68333438 .1539917 .6823273 .1539917 .6633301 .1539917 .6523285 .1639862 .6523285 .17799378 .6523285 .22599793 .6523285 .22799683 .6453247 .22799683 .6353302 .22799683 .6323395 .22499085 .6183319 .22499085 .6183319L.07699585 .028259278C.07598877 .026260376 .07499695 .015258789 .07499695 .015258789 .07499695 .004257202 .083999637-.0107421879 .102996829-.0107421879 .12399292-.0107421879 .13699341 .0062561037 .13999939 .01725769L.18299866 .19030762C.18798828 .21231079 .19400025 .23332215 .19898987 .25532533 .20799256 .29133607 .20899964 .29333497 .22698975 .3253479 .24699402 .35736085 .2899933 .42037965 .3600006 .42037965 .4039917 .42037965 .4059906 .3753662 .4059906 .35435487 .4059906 .29232789 .3619995 .17329407 .34799195 .13328552 .33499146 .09927368 .33198548 .090270999 .33198548 .0692749 .33198548 .025253296 .3600006-.0107421879 .4079895-.0107421879 .5009918-.0107421879 .5349884 .1382904 .5349884 .14329529Z"/>
<path id="font_1_120" d="M.43299867 .14338684C.43299867 .15338135 .42099 .15338135 .41799928 .15338135 .4059906 .15338135 .40499879 .15037537 .40098573 .13739014 .3829956 .08744812 .33499146 .053253175 .2919922 .053253175 .27198792 .053253175 .2559967 .06037903 .23599243 .06944275 .20599365 .08244324 .19400025 .08644104 .17399597 .08644104 .16899109 .08644104 .16099549 .08644104 .1559906 .08544922 .16299439 .093444827 .18399048 .1184082 .21199036 .14637757L.35699464 .28923036C.41600038 .34718324 .46398927 .42337037 .46398927 .43237306 .46398927 .4423828 .45599366 .4423828 .44999696 .4423828 .43798829 .4423828 .43699647 .44137574 .43099977 .42938233 .397995 .37226869 .3849945 .3671875 .36898805 .3671875 .35099793 .3671875 .34098817 .37734986 .32199098 .40338136 .30999757 .41937257 .29299928 .4423828 .26098634 .4423828 .18699646 .4423828 .14399719 .34817506 .14399719 .3282013 .14399719 .31921388 .15098572 .31721498 .15899658 .31721498 .17098999 .31721498 .17199707 .31921388 .1769867 .33119203 .18499756 .35317994 .21398926 .3783722 .25099183 .3783722 .2709961 .3783722 .2889862 .37023927 .31098939 .36018373 .34399415 .34518434 .35499574 .34518434 .36999513 .34518434 .35499574 .3282013 .34599305 .31721498 .32998658 .30122376L.1659851 .13839722C.10998535 .08345032 .06199646 .009246826 .06199646-.00074768069 .06199646-.0107421879 .070999149-.0107421879 .07699585-.0107421879 .08799744-.0107421879 .08898926-.008743286 .09298706-.0017547608 .10699463 .019256592 .13398743 .064453128 .17199707 .064453128 .19400025 .064453128 .20199585 .053253175 .21998596 .028244019 .23599243 .008255005 .25099183-.0107421879 .28199769-.0107421879 .3789978-.0107421879 .43299867 .11941528 .43299867 .14338684Z"/>
<path id="font_1_28" d="M.5249939 .14329529C.5249939 .1532898 .5169983 .1532898 .5099945 .1532898 .49798585 .1532898 .49699403 .15229798 .4909973 .13027954 .47698976 .07426453 .45799256 .011245728 .42399598 .011245728 .397995 .011245728 .397995 .038253786 .397995 .052261354 .397995 .059265138 .397995 .07527161 .40499879 .103271488L.47299195 .3753662C.47698976 .38935853 .47698976 .39135743 .47698976 .3963623 .47698976 .41737367 .45999146 .42237855 .44999696 .42237855 .41799928 .42237855 .41099549 .3883667 .4099884 .38336183 .3909912 .42637635 .35899354 .4423828 .32699586 .4423828 .21598816 .4423828 .09799194 .29032899 .09799194 .14428711 .09799194 .059265138 .14399719-.0107421879 .21899414-.0107421879 .25498963-.0107421879 .29899598 .010253906 .33898927 .059265138 .34999085 .010253906 .3869934-.0107421879 .42199708-.0107421879 .45899964-.0107421879 .47999574 .014251709 .49499513 .04525757 .5130005 .08326721 .5249939 .14329529 .5249939 .14329529M.34599305 .12428284C.33799745 .0922699 .27598573 .011245728 .22099304 .011245728 .17399597 .011245728 .1659851 .07026672 .1659851 .10028076 .1659851 .15029907 .19699097 .26733399 .21499634 .30934144 .23999024 .37036134 .28599549 .42037965 .32699586 .42037965 .37098695 .42037965 .3959961 .36836244 .3959961 .32633973 .3959961 .32633973 .394989 .31933595 .3929901 .31333924L.34599305 .12428284Z"/>
<path id="font_1_72" d="M.27999879 .14326477C.27999879 .15327454 .27198792 .15327454 .2649994 .15327454 .2599945 .15327454 .2539978 .15327454 .25099183 .14826966L.24398804 .1232605C.22698975 .053253175 .20799256 .011245728 .17999268 .011245728 .1539917 .011245728 .1539917 .038253786 .1539917 .052261354 .1539917 .059249879 .1539917 .07426453 .1599884 .0982666L.30299378 .6693268C.3039856 .67233279 .30599977 .6823273 .30599977 .6823273 .30599977 .69132998 .2999878 .69433596 .2919922 .69433596 .2889862 .69433596 .2789917 .69332888 .27598573 .6923218L.1769867 .6843262C.16499329 .68333438 .1539917 .6823273 .1539917 .6633301 .1539917 .6523285 .1639862 .6523285 .17799378 .6523285 .22599793 .6523285 .22799683 .6453247 .22799683 .6353302 .22799683 .6323242 .22499085 .61831668 .22499085 .61831668L.099990848 .118255618C.09899902 .11425781 .09399414 .09425354 .09399414 .07925415 .09399414 .026245118 .12998963-.0107421879 .17799378-.0107421879 .21598816-.0107421879 .23599243 .01625061 .24899292 .041259767 .2659912 .07626343 .27999879 .14025879 .27999879 .14326477Z"/>
<path id="font_1_116" d="M.48799134 .14334107C.48799134 .15333557 .47999574 .15333557 .47299195 .15333557 .46099855 .15333557 .45999146 .15234375 .45498658 .13633728 .42799378 .050338746 .37799073 .011245728 .33599855 .011245728 .31599427 .011245728 .2889862 .02331543 .2889862 .07533264 .2889862 .09933472 .2999878 .14233399 .30799867 .17634583L.34199525 .3133545C.35598756 .3653717 .3829956 .42037965 .42999269 .42037965 .43299867 .42037965 .45799256 .42037965 .47399903 .40637208 .43399049 .39637757 .43399049 .35836793 .43399049 .35836793 .43399049 .34536744 .44299317 .32637025 .46899415 .32637025 .4869995 .32637025 .5179901 .34036256 .5179901 .379364 .5179901 .43037416 .45999146 .4423828 .43099977 .4423828 .37599183 .4423828 .34298707 .39337159 .33299256 .3743744 .31098939 .43437196 .2619934 .4423828 .23699951 .4423828 .13699341 .4423828 .08299255 .3113556 .08299255 .2883606 .08299255 .27835084 .09298706 .27835084 .09799194 .27835084 .11099243 .27835084 .11099243 .2793579 .115997318 .29536439 .14299011 .38136292 .19499207 .42037965 .23498535 .42037965 .2639923 .42037965 .2829895 .39736939 .2829895 .35736085 .2829895 .33335877 .2709961 .2843628 .2619934 .24736023L.23899842 .15634156C.22299195 .09133911 .20199585 .011245728 .14199829 .011245728 .13899231 .011245728 .114990238 .011245728 .09799194 .02532959 .12799073 .033340455 .13699341 .05833435 .13699341 .07333374 .13699341 .09933472 .115997318 .10533142 .102996829 .10533142 .07798767 .10533142 .052993776 .08433533 .052993776 .051330568 .052993776 .012252808 .09498596-.0107421879 .14099121-.0107421879 .18899536-.0107421879 .22200012 .02734375 .23899842 .05734253 .25898744 .00024414063 .30799867-.0107421879 .33399964-.0107421879 .43699647-.0107421879 .48799134 .12333679 .48799134 .14334107Z"/>
<path id="font_1_98" d="M.3929901 .15733338C.3929901 .24420166 .31498719 .2621765 .27398683 .27116395 .24598694 .2771454 .20999146 .285141 .20999146 .32810975 .20999146 .35211183 .23098755 .42037965 .31098939 .42037965 .33799745 .42037965 .375 .4103241 .38598634 .371109 .35398866 .3671112 .34599305 .34010316 .34599305 .33010865 .34599305 .31910707 .35198976 .30210877 .37599183 .30210877 .3929901 .30210877 .4189911 .31410218 .4189911 .3571167 .4189911 .4032898 .37799073 .4423828 .31199647 .4423828 .19499207 .4423828 .1539917 .3461151 .1539917 .29412843 .1539917 .21723938 .21899414 .20326233 .24699402 .19728089 .29100038 .18728638 .33599855 .17730713 .33599855 .12335205 .33599855 .09135437 .30899049 .011245728 .20599365 .011245728 .18399048 .011245728 .12599182 .01626587 .10998535 .067352298 .16099549 .07235718 .16099549 .11634827 .16099549 .11634827 .16099549 .13534546 .147995 .14834595 .1269989 .14834595 .10398865 .14834595 .07598877 .13134766 .07598877 .08634949 .07598877 .025268555 .13398743-.0107421879 .20498657-.0107421879 .35499574-.0107421879 .3929901 .11135864 .3929901 .15733338Z"/>
<path id="font_2_1" d="M.1789856 .114868167C.13899231 .047973634 .099990848 .033981325 .055999757 .0309906 .04399109 .02999878 .034988405 .02999878 .034988405 .010986328 .034988405 .004989624 .039993287 0 .04798889 0 .07499695 0 .10598755 .0029907227 .13398743 .0029907227 .16699219 .0029907227 .20199585 0 .23399353 0 .23999024 0 .25299073 0 .25299073 .018997193 .25299073 .02999878 .24398804 .0309906 .23699951 .0309906 .21398926 .032989503 .18998719 .04096985 .18998719 .06593323 .18998719 .077926639 .19599915 .088897708 .20399475 .102890018L.27999879 .23068238H.5309906C.5329895 .2097168 .5469971 .07392883 .5469971 .063949588 .5469971 .033981325 .49499513 .0309906 .47499085 .0309906 .46099855 .0309906 .45098878 .0309906 .45098878 .010986328 .45098878 0 .46299745 0 .46499635 0 .5059967 0 .548996 .0029907227 .58999636 .0029907227 .61499026 .0029907227 .6779938 0 .7029877 0 .70899966 0 .72099307 0 .72099307 .019989014 .72099307 .0309906 .71099856 .0309906 .69799807 .0309906 .6359863 .0309906 .6359863 .037979127 .6329956 .06694031L.57199099 .691803C.56999209 .71180728 .56999209 .7158203 .5529938 .7158203 .5369873 .7158203 .5329895 .7088165 .5269928 .69880679L.1789856 .114868167M.29899598 .26168824 .49598695 .5917816 .5279999 .26168824H.29899598Z"/>
<path id="font_2_4" d="M.15899658 .07795715C.14898682 .038986207 .14698792 .0309906 .067993167 .0309906 .050994874 .0309906 .039993287 .0309906 .039993287 .011993408 .039993287 0 .04899597 0 .067993167 0H.39898683C.6069946 0 .80400088 .21087647 .80400088 .42974855 .80400088 .5706482 .71899417 .6826172 .56900027 .6826172H.23298645C.21398926 .6826172 .20298767 .6826172 .20298767 .66360476 .20298767 .6516113 .21199036 .6516113 .23199463 .6516113 .24499512 .6516113 .2630005 .65060427 .2749939 .6496124 .29100038 .6476135 .29699708 .64460757 .29699708 .6336212 .29699708 .6296234 .29599 .62661746 .29299928 .614624L.15899658 .07795715M.375 .6136322C.38398744 .64860537 .38598634 .6516113 .42900086 .6516113H.5359955C.6339874 .6516113 .71699526 .5986328 .71699526 .46672059 .71699526 .41775514 .69699099 .25386048 .6119995 .1439209 .58299258 .10694885 .5039978 .0309906 .3809967 .0309906H.2679901C.2539978 .0309906 .2519989 .0309906 .24598694 .03199768 .23599243 .032989503 .23298645 .033996583 .23298645 .041992189 .23298645 .04498291 .23298645 .04698181 .23799134 .064971927L.375 .6136322Z"/>
<path id="font_2_2" d="M.1599884 .07795715C.1499939 .038986207 .147995 .0309906 .068984989 .0309906 .051986696 .0309906 .041992189 .0309906 .041992189 .010986328 .041992189 0 .050994874 0 .068984989 0H.42599488C.58399966 0 .70199587 .11791992 .70199587 .21585083 .70199587 .28778077 .6439972 .3457489 .5469971 .35673524 .651001 .37573243 .7559967 .44970704 .7559967 .5446625 .7559967 .6186218 .6899872 .6826172 .56999209 .6826172H.23399353C.21499634 .6826172 .20498657 .6826172 .20498657 .6626129 .20498657 .6516113 .21398926 .6516113 .23298645 .6516113 .23498535 .6516113 .2539978 .6516113 .2709961 .6496124 .2889862 .6476135 .2979889 .64660647 .2979889 .6336212 .2979889 .6296234 .29699708 .62661746 .2939911 .614624L.1599884 .07795715M.31098939 .36573792 .37298585 .6136322C.38198854 .64860537 .38398744 .6516113 .4269867 .6516113H.55599978C.6439972 .6516113 .6649933 .5926361 .6649933 .5486603 .6649933 .46069337 .57899478 .36573792 .45700074 .36573792H.31098939M.2659912 .0309906C.2519989 .0309906 .25 .0309906 .24398804 .03199768 .23399353 .032989503 .23098755 .033996583 .23098755 .04197693 .23098755 .04498291 .23098755 .04698181 .23599243 .064971927L.30499269 .34375H.49398805C.58999636 .34375 .60899356 .2698059 .60899356 .22683716 .60899356 .12791443 .519989 .0309906 .4019928 .0309906H.2659912Z"/>
<path id="font_2_3" d="M.7599945 .69506838C.7599945 .69807437 .7579956 .7050781 .7489929 .7050781 .74598696 .7050781 .7449951 .70407107 .73399356 .69306948L.6639862 .61602786C.6549988 .6300354 .60899356 .7050781 .49798585 .7050781 .2749939 .7050781 .049987794 .48391725 .049987794 .25172425 .049987794 .08659363 .16799927-.022460938 .32099916-.022460938 .4079895-.022460938 .48399354 .017532349 .5369873 .063583377 .6299896 .14564514 .6469879 .2367096 .6469879 .23971558 .6469879 .24972534 .6369934 .24972534 .6349945 .24972534 .6289978 .24972534 .6239929 .24772644 .621994 .23971558 .61299136 .21069336 .58999636 .13963318 .5209961 .081588748 .45199586 .025543213 .3889923 .008529663 .33699037 .008529663 .24699402 .008529663 .14099121 .060577394 .14099121 .21670532 .14099121 .27374269 .1619873 .43588258 .2619934 .55296328 .32299806 .62402346 .4169922 .67407229 .5059967 .67407229 .60798647 .67407229 .6669922 .5970001 .6669922 .48091126 .6669922 .44088746 .6639862 .43988038 .6639862 .4298706 .6639862 .41986085 .6749878 .41986085 .67900088 .41986085 .69200137 .41986085 .69200137 .42185975 .69699099 .43988038L.7599945 .69506838Z"/>
<path id="font_1_112" d="M.49299623 .37635804C.49299623 .41137696 .48098756 .4423828 .45199586 .4423828 .42900086 .4423828 .4039917 .41937257 .4039917 .3963623 .4039917 .38336183 .41099549 .37635804 .4169922 .36935426 .44099427 .34335328 .44400025 .31134034 .44400025 .29032899 .44400025 .2623291 .39698792 .011245728 .28199769 .011245728 .22799683 .011245728 .21699524 .061264039 .21699524 .0942688 .21699524 .15229798 .24899292 .23931885 .27598573 .31134034 .2809906 .3273468 .2869873 .3423462 .2869873 .36135865 .2869873 .41137696 .2539978 .4423828 .21099854 .4423828 .117996219 .4423828 .08299255 .29434205 .08299255 .28833009 .08299255 .27833558 .09298706 .27833558 .09799194 .27833558 .11099243 .27833558 .11199951 .28033448 .115997318 .29434205 .12399292 .3253479 .15098572 .42037965 .20899964 .42037965 .21998596 .42037965 .23098755 .41737367 .23098755 .39135743 .23098755 .36735536 .22099304 .3403473 .20698548 .30133058 .17599488 .2163086 .1559906 .15629578 .1559906 .10928345 .1559906 .018249512 .21998596-.0107421879 .2789917-.0107421879 .44699098-.0107421879 .49299623 .35035707 .49299623 .37635804Z"/>
<path id="font_3_2" d="M.2939911 .64004519C.2939911 .66400149 .2939911 .6660156 .2709961 .6660156 .20899964 .60227969 .12098694 .60227969 .08898926 .60227969V.57128909C.10899353 .57128909 .16799927 .57128909 .21998596 .5972748V.07902527C.21998596 .042999269 .21699524 .0309906 .1269989 .0309906H.09498596V0C.12998963 .0029907227 .21699524 .0029907227 .25698854 .0029907227 .29699708 .0029907227 .38398744 .0029907227 .4189911 0V.0309906H.3869934C.29699708 .0309906 .2939911 .041992189 .2939911 .07902527V.64004519Z"/>
<path id="font_3_3" d="M.16299439 .4569702C.116989139 .486969 .11299133 .52098086 .11299133 .5379791 .11299133 .598999 .17799378 .64100649 .24899292 .64100649 .32199098 .64100649 .38598634 .58898928 .38598634 .51698306 .38598634 .45996095 .34700013 .4119568 .2869873 .37695313L.16299439 .4569702M.30899049 .36193849C.3809967 .3989563 .42999269 .45095826 .42999269 .51698306 .42999269 .6090088 .34098817 .6660156 .25 .6660156 .1499939 .6660156 .068984989 .59199526 .068984989 .49897767 .068984989 .4809723 .070999149 .43595887 .11299133 .38894654 .12399292 .37695313 .16099549 .35194398 .18598938 .33494569 .12799073 .30592347 .041992189 .24984741 .041992189 .15072632 .041992189 .04458618 .14399719-.022460938 .24899292-.022460938 .3619995-.022460938 .45700074 .06060791 .45700074 .16773987 .45700074 .20379639 .44599916 .24885559 .4079895 .2909088 .3889923 .31193543 .37298585 .3219452 .30899049 .36193849M.20899964 .3199463 .33198548 .24183655C.3600006 .2228241 .40699769 .19277954 .40699769 .13169861 .40699769 .05760193 .33198548 .0055389406 .25 .0055389406 .1639862 .0055389406 .09199524 .067611698 .09199524 .15072632 .09199524 .20880127 .12399292 .27288819 .20899964 .3199463Z"/>
<path id="font_3_1" d="M.45999146 .31976319C.45999146 .39982606 .45498658 .47988893 .41999818 .5539398 .37399293 .65000918 .2919922 .6660156 .25 .6660156 .18998719 .6660156 .116989139 .64001467 .07598877 .54693606 .04399109 .47789 .038986207 .39982606 .038986207 .31976319 .038986207 .24472046 .042999269 .15464783 .083999637 .07859802 .1269989-.0024719239 .19999695-.022460938 .24899292-.022460938 .30299378-.022460938 .3789978-.0014648438 .4229889 .09359741 .45498658 .16265869 .45999146 .2407074 .45999146 .31976319M.24899292-.00047302247C.20999146-.00047302247 .15098572 .024551392 .1329956 .12062073 .12199402 .18066406 .12199402 .2727356 .12199402 .3317871 .12199402 .39582826 .12199402 .46188355 .12998963 .5159149 .14898682 .63500979 .22399903 .64401248 .24899292 .64401248 .28199769 .64401248 .34799195 .6259918 .36698915 .52693179 .3769989 .47088624 .3769989 .39482118 .3769989 .3317871 .3769989 .25672914 .3769989 .18867493 .3659973 .12461853 .35099793 .029556275 .2939911-.00047302247 .24899292-.00047302247Z"/>
<path id="font_4_1" d="M.5069885 .24998474C.5069885 .3710022 .4099884 .4650116 .2919922 .4650116 .17199707 .4650116 .07699585 .36799623 .07699585 .25097657 .07699585 .1299591 .17399597 .035949708 .2919922 .035949708 .4119873 .035949708 .5069885 .13296509 .5069885 .24998474M.2919922 .08496094C.19799805 .08496094 .12599182 .16096497 .12599182 .24998474 .12599182 .34300233 .19999695 .41601563 .2919922 .41601563 .38598634 .41601563 .45799256 .33999635 .45799256 .25097657 .45799256 .15795899 .38398744 .08496094 .2919922 .08496094Z"/>
<path id="font_1_47" d="M.5349884 .14329529C.5349884 .1532898 .5269928 .1532898 .519989 .1532898 .5079956 .1532898 .5069885 .15229798 .5009918 .13027954 .4869995 .07426453 .46798707 .011245728 .43399049 .011245728 .4079895 .011245728 .4079895 .038253786 .4079895 .052261354 .4079895 .059265138 .4079895 .07426453 .4139862 .09828186L.5569916 .6693268C.55799868 .67233279 .55999758 .6823273 .55999758 .6823273 .55999758 .69132998 .55400088 .69433596 .54599 .69433596 .54299929 .69433596 .5329895 .69332888 .5299988 .6923218L.43099977 .6843262C.4189911 .68333438 .4079895 .6823273 .4079895 .6633301 .4079895 .6523285 .41799928 .6523285 .43199159 .6523285 .47999574 .6523285 .48199464 .6453247 .48199464 .6353302 .48199464 .6323395 .47898866 .6183319 .47898866 .6183319L.42099 .3843689C.4059906 .41537477 .3789978 .4423828 .33699037 .4423828 .22599793 .4423828 .10798645 .29032899 .10798645 .14428711 .10798645 .059265138 .1539917-.0107421879 .22898865-.0107421879 .2649994-.0107421879 .30899049 .010253906 .34899903 .059265138 .3600006 .010253906 .39698792-.0107421879 .43199159-.0107421879 .46899415-.0107421879 .48999024 .014251709 .5049896 .04525757 .522995 .08326721 .5349884 .14329529 .5349884 .14329529M.35499574 .122283939C.34700013 .091278079 .28599549 .011245728 .23098755 .011245728 .18399048 .011245728 .17599488 .07026672 .17599488 .10028076 .17599488 .15029907 .20698548 .26733399 .22499085 .30934144 .25 .37036134 .29599 .42037965 .33699037 .42037965 .34498597 .42037965 .36799623 .41937257 .38598634 .39135743 .3959961 .3753662 .4059906 .346344 .4059906 .3273468 .4059906 .32434083 .40499879 .32034303 .40299989 .3143463L.35499574 .122283939Z"/>
<path id="font_1_118" d="M.4149933-.002746582 .5130005 .39135743C.5139923 .39736939 .5159912 .40237428 .5159912 .405365 .5159912 .41636659 .5079956 .43138124 .48799134 .43138124 .45799256 .43138124 .45098878 .40237428 .44898988 .3943634L.37599183 .10028076C.36898805 .0712738 .32899476 .011245728 .269989 .011245728 .22499085 .011245728 .21598816 .055267335 .21598816 .088272098 .21598816 .14929199 .24899292 .23931885 .27398683 .30734254 .28199769 .32833863 .2869873 .3423462 .2869873 .36135865 .2869873 .41137696 .2539978 .4423828 .21099854 .4423828 .117996219 .4423828 .08299255 .29434205 .08299255 .28833009 .08299255 .27833558 .09298706 .27833558 .09799194 .27833558 .11099243 .27833558 .11199951 .28033448 .115997318 .29434205 .12399292 .3253479 .15098572 .42037965 .20899964 .42037965 .21998596 .42037965 .23098755 .41737367 .23098755 .39135743 .23098755 .36735536 .22099304 .3403473 .20698548 .30133058 .18099976 .23132324 .15499878 .1572876 .15499878 .105285648 .15499878 .018249512 .21299744-.0107421879 .2669983-.0107421879 .31298829-.0107421879 .34399415 .013244629 .35699464 .026260376 .31900025-.13865662 .24499512-.18261719 .19499207-.18261719 .14698792-.18261719 .1329956-.14465332 .1329956-.1396637 .1329956-.1396637 .13398743-.1376648 .14099121-.13665772 .17199707-.13166809 .18399048-.10467529 .18399048-.08869934 .18399048-.06770325 .16799927-.05671692 .1499939-.05671692 .13798523-.056625368 .09899902-.06262207 .09899902-.118621829 .09899902-.17062378 .13999939-.20462036 .19499207-.20462036 .29899598-.20462036 .3899994-.101623538 .4149933-.0026245118V-.002746582Z"/>
</defs>
<path transform="matrix(1.00002,0,0,-1,115.31102,243.434)" stroke-width=".3985" stroke-linecap="butt" stroke-miterlimit="10" stroke-linejoin="miter" fill="none" stroke="#000000" d="M-102.04825 0H-42.52008V34.01608H-102.04825Z"/>
<path transform="matrix(1.00002,0,0,-1,115.31102,243.434)" stroke-width=".3985" stroke-linecap="butt" stroke-miterlimit="10" stroke-linejoin="miter" fill="none" stroke="#000000" d="M102.04825 0H42.52008V34.01608H102.04825Z"/>
<path transform="matrix(1.00002,0,0,-1,115.31102,243.434)" stroke-width=".3985" stroke-linecap="butt" stroke-miterlimit="10" stroke-linejoin="miter" fill="none" stroke="#000000" d="M-34.01608 17.00801H33.5578"/>
<path transform="matrix(1.00002,0,0,-1,148.86949,226.426)" stroke-width=".31879" stroke-linecap="round" stroke-linejoin="round" fill="none" stroke="#000000" d="M-1.19551 1.59401C-1.09587 .99626 0 .09961 .29886 0 0-.09961-1.09587-.99626-1.19551-1.59401"/>
<use data-text="r" xlink:href="#font_1_96" transform="matrix(9.962799,0,0,-9.9626,95.26562,220.86402)"/>
<use data-text="e" xlink:href="#font_1_50" transform="matrix(9.962799,0,0,-9.9626,98.96183,220.86402)"/>
<use data-text="f" xlink:href="#font_1_126" transform="matrix(9.962799,0,0,-9.9626,103.544719,220.86402)"/>
<use data-text="e" xlink:href="#font_1_50" transform="matrix(9.962799,0,0,-9.9626,109.402828,220.86402)"/>
<use data-text="c" xlink:href="#font_1_43" transform="matrix(9.962799,0,0,-9.9626,113.47762,220.86402)"/>
<use data-text="t" xlink:href="#font_1_105" transform="matrix(9.962799,0,0,-9.9626,118.06051,220.86402)"/>
<use data-text="i" xlink:href="#font_1_66" transform="matrix(9.962799,0,0,-9.9626,121.36816,220.86402)"/>
<use data-text="o" xlink:href="#font_1_81" transform="matrix(9.962799,0,0,-9.9626,124.426738,220.86402)"/>
<use data-text="n" xlink:href="#font_1_77" transform="matrix(9.962799,0,0,-9.9626,129.51773,220.86402)"/>
<use data-text="h" xlink:href="#font_1_63" transform="matrix(9.962799,0,0,-9.9626,83.47438,236.86)"/>
<use data-text="o" xlink:href="#font_1_81" transform="matrix(9.962799,0,0,-9.9626,88.565387,236.86)"/>
<use data-text="r" xlink:href="#font_1_96" transform="matrix(9.962799,0,0,-9.9626,93.65636,236.86)"/>
<use data-text="i" xlink:href="#font_1_66" transform="matrix(9.962799,0,0,-9.9626,97.86067,236.86)"/>
<use data-text="z" xlink:href="#font_1_120" transform="matrix(9.962799,0,0,-9.9626,100.91925,236.86)"/>
<use data-text="o" xlink:href="#font_1_81" transform="matrix(9.962799,0,0,-9.9626,104.99403,236.86)"/>
<use data-text="n" xlink:href="#font_1_77" transform="matrix(9.962799,0,0,-9.9626,110.08504,236.86)"/>
<use data-text="t" xlink:href="#font_1_105" transform="matrix(9.962799,0,0,-9.9626,115.68413,236.86)"/>
<use data-text="a" xlink:href="#font_1_28" transform="matrix(9.962799,0,0,-9.9626,118.99179,236.86)"/>
<use data-text="l" xlink:href="#font_1_72" transform="matrix(9.962799,0,0,-9.9626,124.08278,236.86)"/>
<use data-text="a" xlink:href="#font_1_28" transform="matrix(9.962799,0,0,-9.9626,130.18999,236.86)"/>
<use data-text="x" xlink:href="#font_1_116" transform="matrix(9.962799,0,0,-9.9626,135.28098,236.86)"/>
<use data-text="i" xlink:href="#font_1_66" transform="matrix(9.962799,0,0,-9.9626,139.9037,236.86)"/>
<use data-text="s" xlink:href="#font_1_98" transform="matrix(9.962799,0,0,-9.9626,142.9623,236.86)"/>
<use data-text="A" xlink:href="#font_2_1" transform="matrix(9.962799,0,0,-9.9626,2.268753,212.822)"/>
<use data-text="D" xlink:href="#font_2_4" transform="matrix(9.962799,0,0,-9.9626,1.2157288,246.83802)"/>
<use data-text="B" xlink:href="#font_2_2" transform="matrix(9.962799,0,0,-9.9626,76.31024,212.822)"/>
<use data-text="C" xlink:href="#font_2_3" transform="matrix(9.962799,0,0,-9.9626,76.31024,246.83802)"/>
<use data-text="C" xlink:href="#font_2_3" transform="matrix(9.962799,0,0,-9.9626,220.88114,212.822)"/>
<use data-text="B" xlink:href="#font_2_2" transform="matrix(9.962799,0,0,-9.9626,220.88114,246.83802)"/>
<use data-text="D" xlink:href="#font_2_4" transform="matrix(9.962799,0,0,-9.9626,145.78662,212.822)"/>
<use data-text="A" xlink:href="#font_2_1" transform="matrix(9.962799,0,0,-9.9626,146.83966,246.83802)"/>
<path transform="matrix(1.00002,0,0,-1,115.31102,243.434)" stroke-width=".3985" stroke-linecap="butt" stroke-miterlimit="10" stroke-linejoin="miter" fill="none" stroke="#000000" d="M-102.04825 68.03217H-42.52008V102.04825H-102.04825Z"/>
<path transform="matrix(1.00002,0,0,-1,115.31102,243.434)" stroke-width=".3985" stroke-linecap="butt" stroke-miterlimit="10" stroke-linejoin="miter" fill="none" stroke="#000000" d="M102.04825 68.03217H42.52008V102.04825H102.04825Z"/>
<path transform="matrix(1.00002,0,0,-1,115.31102,243.434)" stroke-width=".3985" stroke-linecap="butt" stroke-miterlimit="10" stroke-linejoin="miter" fill="none" stroke="#000000" d="M-34.01608 85.04019H33.5578"/>
<path transform="matrix(1.00002,0,0,-1,148.86949,158.39382)" stroke-width=".31879" stroke-linecap="round" stroke-linejoin="round" fill="none" stroke="#000000" d="M-1.19551 1.59401C-1.09587 .99626 0 .09961 .29886 0 0-.09961-1.09587-.99626-1.19551-1.59401"/>
<use data-text="r" xlink:href="#font_1_96" transform="matrix(9.962799,0,0,-9.9626,95.26562,152.832)"/>
<use data-text="e" xlink:href="#font_1_50" transform="matrix(9.962799,0,0,-9.9626,98.96183,152.832)"/>
<use data-text="f" xlink:href="#font_1_126" transform="matrix(9.962799,0,0,-9.9626,103.544719,152.832)"/>
<use data-text="e" xlink:href="#font_1_50" transform="matrix(9.962799,0,0,-9.9626,109.402828,152.832)"/>
<use data-text="c" xlink:href="#font_1_43" transform="matrix(9.962799,0,0,-9.9626,113.47762,152.832)"/>
<use data-text="t" xlink:href="#font_1_105" transform="matrix(9.962799,0,0,-9.9626,118.06051,152.832)"/>
<use data-text="i" xlink:href="#font_1_66" transform="matrix(9.962799,0,0,-9.9626,121.36816,152.832)"/>
<use data-text="o" xlink:href="#font_1_81" transform="matrix(9.962799,0,0,-9.9626,124.426738,152.832)"/>
<use data-text="n" xlink:href="#font_1_77" transform="matrix(9.962799,0,0,-9.9626,129.51773,152.832)"/>
<use data-text="v" xlink:href="#font_1_112" transform="matrix(9.962799,0,0,-9.9626,89.3275,168.828)"/>
<use data-text="e" xlink:href="#font_1_50" transform="matrix(9.962799,0,0,-9.9626,93.910388,168.828)"/>
<use data-text="r" xlink:href="#font_1_96" transform="matrix(9.962799,0,0,-9.9626,98.49327,168.828)"/>
<use data-text="t" xlink:href="#font_1_105" transform="matrix(9.962799,0,0,-9.9626,102.69757,168.828)"/>
<use data-text="i" xlink:href="#font_1_66" transform="matrix(9.962799,0,0,-9.9626,106.00523,168.828)"/>
<use data-text="c" xlink:href="#font_1_43" transform="matrix(9.962799,0,0,-9.9626,109.06381,168.828)"/>
<use data-text="a" xlink:href="#font_1_28" transform="matrix(9.962799,0,0,-9.9626,113.138599,168.828)"/>
<use data-text="l" xlink:href="#font_1_72" transform="matrix(9.962799,0,0,-9.9626,118.22958,168.828)"/>
<use data-text="a" xlink:href="#font_1_28" transform="matrix(9.962799,0,0,-9.9626,124.33679,168.828)"/>
<use data-text="x" xlink:href="#font_1_116" transform="matrix(9.962799,0,0,-9.9626,129.42778,168.828)"/>
<use data-text="i" xlink:href="#font_1_66" transform="matrix(9.962799,0,0,-9.9626,134.05052,168.828)"/>
<use data-text="s" xlink:href="#font_1_98" transform="matrix(9.962799,0,0,-9.9626,137.1091,168.828)"/>
<use data-text="A" xlink:href="#font_2_1" transform="matrix(9.962799,0,0,-9.9626,2.268753,144.79001)"/>
<use data-text="D" xlink:href="#font_2_4" transform="matrix(9.962799,0,0,-9.9626,1.2157288,178.806)"/>
<use data-text="B" xlink:href="#font_2_2" transform="matrix(9.962799,0,0,-9.9626,76.31024,144.79001)"/>
<use data-text="C" xlink:href="#font_2_3" transform="matrix(9.962799,0,0,-9.9626,76.31024,178.806)"/>
<use data-text="A" xlink:href="#font_2_1" transform="matrix(9.962799,0,0,-9.9626,220.88114,144.79001)"/>
<use data-text="D" xlink:href="#font_2_4" transform="matrix(9.962799,0,0,-9.9626,220.88114,178.806)"/>
<use data-text="B" xlink:href="#font_2_2" transform="matrix(9.962799,0,0,-9.9626,146.25565,144.79001)"/>
<use data-text="C" xlink:href="#font_2_3" transform="matrix(9.962799,0,0,-9.9626,146.47864,178.806)"/>
<path transform="matrix(1.00002,0,0,-1,115.31102,243.434)" stroke-width=".3985" stroke-linecap="butt" stroke-miterlimit="10" stroke-linejoin="miter" fill="none" stroke="#000000" d="M-102.04825 136.06433H-42.52008V170.08042H-102.04825Z"/>
<path transform="matrix(1.00002,0,0,-1,115.31102,243.434)" stroke-width=".3985" stroke-linecap="butt" stroke-miterlimit="10" stroke-linejoin="miter" fill="none" stroke="#000000" d="M102.04825 136.06433H42.52008V170.08042H102.04825Z"/>
<path transform="matrix(1.00002,0,0,-1,115.31102,243.434)" stroke-width=".3985" stroke-linecap="butt" stroke-miterlimit="10" stroke-linejoin="miter" fill="none" stroke="#000000" d="M-34.01608 153.07236H33.5578"/>
<path transform="matrix(1.00002,0,0,-1,148.86949,90.36165)" stroke-width=".31879" stroke-linecap="round" stroke-linejoin="round" fill="none" stroke="#000000" d="M-1.19551 1.59401C-1.09587 .99626 0 .09961 .29886 0 0-.09961-1.09587-.99626-1.19551-1.59401"/>
<use data-text="1" xlink:href="#font_3_2" transform="matrix(9.962799,0,0,-9.9626,105.54883,86.84201)"/>
<use data-text="8" xlink:href="#font_3_3" transform="matrix(9.962799,0,0,-9.9626,110.53021,86.84201)"/>
<use data-text="0" xlink:href="#font_3_1" transform="matrix(9.962799,0,0,-9.9626,115.51161,86.84201)"/>
<use data-text="&#x25e6;" xlink:href="#font_4_1" transform="matrix(6.97394,0,0,-6.9738,120.49313,83.227008)"/>
<use data-text="r" xlink:href="#font_1_96" transform="matrix(9.962799,0,0,-9.9626,98.06967,100.397)"/>
<use data-text="o" xlink:href="#font_1_81" transform="matrix(9.962799,0,0,-9.9626,101.765888,100.397)"/>
<use data-text="t" xlink:href="#font_1_105" transform="matrix(9.962799,0,0,-9.9626,106.85687,100.397)"/>
<use data-text="a" xlink:href="#font_1_28" transform="matrix(9.962799,0,0,-9.9626,110.164539,100.397)"/>
<use data-text="t" xlink:href="#font_1_105" transform="matrix(9.962799,0,0,-9.9626,115.25551,100.397)"/>
<use data-text="i" xlink:href="#font_1_66" transform="matrix(9.962799,0,0,-9.9626,118.56317,100.397)"/>
<use data-text="o" xlink:href="#font_1_81" transform="matrix(9.962799,0,0,-9.9626,121.62175,100.397)"/>
<use data-text="n" xlink:href="#font_1_77" transform="matrix(9.962799,0,0,-9.9626,126.71274,100.397)"/>
<use data-text="A" xlink:href="#font_2_1" transform="matrix(9.962799,0,0,-9.9626,2.268753,76.75801)"/>
<use data-text="D" xlink:href="#font_2_4" transform="matrix(9.962799,0,0,-9.9626,1.2157288,110.774)"/>
<use data-text="B" xlink:href="#font_2_2" transform="matrix(9.962799,0,0,-9.9626,76.31024,76.75801)"/>
<use data-text="C" xlink:href="#font_2_3" transform="matrix(9.962799,0,0,-9.9626,76.31024,110.774)"/>
<use data-text="D" xlink:href="#font_2_4" transform="matrix(9.962799,0,0,-9.9626,220.88114,76.75801)"/>
<use data-text="A" xlink:href="#font_2_1" transform="matrix(9.962799,0,0,-9.9626,220.88114,110.774)"/>
<use data-text="C" xlink:href="#font_2_3" transform="matrix(9.962799,0,0,-9.9626,146.47864,76.75801)"/>
<use data-text="B" xlink:href="#font_2_2" transform="matrix(9.962799,0,0,-9.9626,146.25565,110.774)"/>
<path transform="matrix(1.00002,0,0,-1,115.31102,243.434)" stroke-width=".3985" stroke-linecap="butt" stroke-miterlimit="10" stroke-linejoin="miter" fill="none" stroke="#000000" d="M-102.04825 204.0965H-42.52008V238.11258H-102.04825Z"/>
<path transform="matrix(1.00002,0,0,-1,115.31102,243.434)" stroke-width=".3985" stroke-linecap="butt" stroke-miterlimit="10" stroke-linejoin="miter" fill="none" stroke="#000000" d="M102.04825 204.0965H42.52008V238.11258H102.04825Z"/>
<path transform="matrix(1.00002,0,0,-1,115.31102,243.434)" stroke-width=".3985" stroke-linecap="butt" stroke-miterlimit="10" stroke-linejoin="miter" fill="none" stroke="#000000" d="M-34.01608 221.10453H33.5578"/>
<path transform="matrix(1.00002,0,0,-1,148.86949,22.329483)" stroke-width=".31879" stroke-linecap="round" stroke-linejoin="round" fill="none" stroke="#000000" d="M-1.19551 1.59401C-1.09587 .99626 0 .09961 .29886 0 0-.09961-1.09587-.99626-1.19551-1.59401"/>
<use data-text="i" xlink:href="#font_1_66" transform="matrix(9.962799,0,0,-9.9626,98.737689,16.766999)"/>
<use data-text="d" xlink:href="#font_1_47" transform="matrix(9.962799,0,0,-9.9626,101.796268,16.766999)"/>
<use data-text="e" xlink:href="#font_1_50" transform="matrix(9.962799,0,0,-9.9626,106.88725,16.766999)"/>
<use data-text="n" xlink:href="#font_1_77" transform="matrix(9.962799,0,0,-9.9626,111.47014,16.766999)"/>
<use data-text="t" xlink:href="#font_1_105" transform="matrix(9.962799,0,0,-9.9626,117.06923,16.766999)"/>
<use data-text="i" xlink:href="#font_1_66" transform="matrix(9.962799,0,0,-9.9626,120.37688,16.766999)"/>
<use data-text="t" xlink:href="#font_1_105" transform="matrix(9.962799,0,0,-9.9626,123.435459,16.766999)"/>
<use data-text="y" xlink:href="#font_1_118" transform="matrix(9.962799,0,0,-9.9626,126.74312,16.766999)"/>
<use data-text="A" xlink:href="#font_2_1" transform="matrix(9.962799,0,0,-9.9626,2.268753,8.725006)"/>
<use data-text="D" xlink:href="#font_2_4" transform="matrix(9.962799,0,0,-9.9626,1.2157288,42.741014)"/>
<use data-text="B" xlink:href="#font_2_2" transform="matrix(9.962799,0,0,-9.9626,76.31024,8.725006)"/>
<use data-text="C" xlink:href="#font_2_3" transform="matrix(9.962799,0,0,-9.9626,76.31024,42.741014)"/>
<use data-text="B" xlink:href="#font_2_2" transform="matrix(9.962799,0,0,-9.9626,220.88114,8.725006)"/>
<use data-text="C" xlink:href="#font_2_3" transform="matrix(9.962799,0,0,-9.9626,220.88114,42.741014)"/>
<use data-text="A" xlink:href="#font_2_1" transform="matrix(9.962799,0,0,-9.9626,146.83966,8.725006)"/>
<use data-text="D" xlink:href="#font_2_4" transform="matrix(9.962799,0,0,-9.9626,145.78662,42.741014)"/>
</svg>
