<svg xmlns="http://www.w3.org/2000/svg" xmlns:xlink="http://www.w3.org/1999/xlink" xmlns:inkscape="http://www.inkscape.org/namespaces/inkscape" version="1.1" width="243" height="211" viewBox="0 0 243 211">
<defs>
<path id="font_1_1" d="M.69898989 .22743225C.71499636 .22743225 .7369995 .22743225 .7369995 .25042726 .7369995 .2734375 .71499636 .2734375 .69898989 .2734375H.12599182C.10998535 .2734375 .08799744 .2734375 .08799744 .25042726 .08799744 .22743225 .10998535 .22743225 .12599182 .22743225H.69898989Z"/>
<path id="font_2_4" d="M.3939972 .6468048C.3939972 .6667938 .3939972 .6748047 .37298585 .6748047 .3600006 .6748047 .35899354 .6737976 .34899903 .65979006L.02999878 .197052V.1640625H.31199647V.08100891C.31199647 .04399109 .30899049 .032989503 .23199463 .032989503H.20899964V0C.2939911 .0029907227 .29599 .0029907227 .35299684 .0029907227 .4099884 .0029907227 .4119873 .0029907227 .49699403 0V.032989503H.47399903C.39698792 .032989503 .3939972 .04399109 .3939972 .08100891V.1640625H.5V.197052H.3939972V.6468048M.31900025 .5658417V.197052H.06498718L.31900025 .5658417Z"/>
<path id="font_2_3" d="M.28199769 .20405579C.2979889 .21907044 .33999635 .2520752 .35598756 .26608277 .41799928 .32312013 .47698976 .3781433 .47698976 .46917726 .47698976 .588089 .3769989 .66503909 .2519989 .66503909 .13198853 .66503909 .052993776 .57411196 .052993776 .48516847 .052993776 .4361725 .09199524 .4291687 .10598755 .4291687 .1269989 .4291687 .1579895 .4441681 .1579895 .48217774 .1579895 .5341797 .10798645 .5341797 .09599304 .5341797 .125 .6070709 .19198609 .6320343 .24099732 .6320343 .33399964 .6320343 .38198854 .55314639 .38198854 .46917726 .38198854 .36514283 .30899049 .28910829 .19099427 .16804505L.06498718 .037994386C.052993776 .026992798 .052993776 .024993897 .052993776 0H.44799806L.47698976 .17904663H.44599916C.44299317 .1590271 .43499757 .10900879 .4229889 .08999634 .4169922 .08198547 .34098817 .08198547 .32499696 .08198547H.14698792L.28199769 .20405579Z"/>
<path id="font_2_5" d="M.13798523 .33073426C.13798523 .41377259 .14498902 .4868164 .18099976 .54782107 .21099854 .5978241 .2619934 .6390381 .32499696 .6390381 .34498597 .6390381 .3909912 .63601687 .4139862 .60084536 .36898805 .5988312 .36499024 .5648346 .36499024 .553833 .36499024 .5238342 .3880005 .50683596 .4119873 .50683596 .42999269 .50683596 .45899964 .51782229 .45899964 .5558319 .45899964 .615921 .4139862 .66503909 .32398988 .66503909 .18499756 .66503909 .04399109 .53282168 .04399109 .31672669 .04399109 .045532228 .16999817-.021484375 .2669983-.021484375 .31498719-.021484375 .36698915-.0084991459 .4119873 .03453064 .45199586 .07354736 .48599244 .11558533 .48599244 .20263672 .48599244 .33372499 .3869934 .42578126 .27598573 .42578126 .20399475 .42578126 .16099549 .37976075 .13798523 .33073426M.2669983 .008514404C.21398926 .008514404 .18099976 .045532228 .1659851 .07354736 .14299011 .11859131 .14099121 .18663025 .14099121 .22465515 .14099121 .32373048 .19499207 .3977661 .27198792 .3977661 .32199098 .3977661 .35198976 .37176515 .37098695 .33673097 .3919983 .29971314 .3919983 .25468446 .3919983 .2036438 .3919983 .15260315 .3919983 .10858154 .37199403 .07255554 .34599305 .026519776 .31098939 .008514404 .2669983 .008514404Z"/>
<path id="font_2_6" d="M.33198548 .36080934C.3880005 .38783265 .45599366 .4378662 .45599366 .5159302 .45599366 .6110077 .35899354 .66503909 .2659912 .66503909 .1599884 .66503909 .07398987 .59199526 .07398987 .49790956 .07398987 .46089173 .08699036 .42686463 .11199951 .39782716 .1289978 .3768158 .1329956 .3748169 .19499207 .3357849 .070999149 .2807312 .04399109 .20767212 .04399109 .15162659 .04399109 .041534425 .15499878-.021484375 .2639923-.021484375 .3869934-.021484375 .48599244 .061553956 .48599244 .16764832 .48599244 .23069763 .45199586 .2727356 .43598939 .28974916 .4189911 .30575563 .41799928 .3067627 .33198548 .36080934M.1769867 .45487977C.147995 .4718933 .12399292 .5009155 .12399292 .5359497 .12399292 .598999 .19299317 .6390381 .2639923 .6390381 .34199525 .6390381 .4059906 .5859833 .4059906 .5159302 .4059906 .45788575 .36099244 .408844 .3019867 .37982179L.1769867 .45487977M.22599793 .31776429C.22999573 .31576539 .34399415 .24571228 .36099244 .23469544 .3769989 .22569275 .42900086 .19366455 .42900086 .13360596 .42900086 .056549074 .34799195 .008514404 .2659912 .008514404 .1769867 .008514404 .100997928 .06956482 .100997928 .15162659 .100997928 .22668457 .15699768 .28573609 .22599793 .31776429Z"/>
<path id="font_2_2" d="M.31399537 .63708499C.31399537 .664032 .31199647 .66503909 .2849884 .66503909 .24398804 .6251831 .19099427 .6013489 .09599304 .6013489V.5683594C.12298584 .5683594 .1769867 .5683594 .23498535 .5953522V.08203125C.23498535 .04499817 .23199463 .032989503 .13699341 .032989503H.101989749V0C.14299011 .0029907227 .22898865 .0029907227 .27398683 .0029907227 .31900025 .0029907227 .4059906 .0029907227 .44699098 0V.032989503H.4119873C.31698609 .032989503 .31399537 .04499817 .31399537 .08203125V.63708499Z"/>
<path id="font_2_1" d="M.4889984 .31877137C.4889984 .42585755 .47799684 .49090577 .44499208 .55496218 .40098573 .6430359 .31999208 .66503909 .2649994 .66503909 .13899231 .66503909 .09298706 .5709839 .07899475 .5429535 .042999269 .4698944 .040985109 .3708191 .040985109 .31877137 .040985109 .25271607 .04399109 .15162659 .09199524 .07156372 .13798523-.0024871827 .21199036-.021484375 .2649994-.021484375 .31298829-.021484375 .39898683-.0064849855 .44898988 .09257507 .48599244 .16464234 .4889984 .2537079 .4889984 .31877137M.2649994 .006515503C.23098755 .006515503 .1619873 .022521973 .14099121 .12760926 .12998963 .18466187 .12998963 .2787323 .12998963 .33078004 .12998963 .3998413 .12998963 .4698944 .14099121 .5249481 .1619873 .6270294 .23999024 .6370239 .2649994 .6370239 .29899598 .6370239 .36799623 .62002566 .3880005 .5289459 .3999939 .4738922 .3999939 .39883424 .3999939 .33078004 .3999939 .27172853 .3999939 .18165589 .3880005 .12561035 .36698915 .020523072 .2979889 .006515503 .2649994 .006515503Z"/>
<clipPath id="clip_3">
<path transform="matrix(1.00003,0,0,-1.00002,1.1504669,208.02785)" d="M.9461 0H240.03675V206.22824H.9461Z"/>
</clipPath>
<path id="font_4_1" d="M.33399964 .30233766C.33999635 .32835389 .36299134 .42037965 .43299867 .42037965 .43798829 .42037965 .46199037 .42037965 .48298646 .40734864 .45498658 .402359 .43499757 .37734986 .43499757 .35334779 .43499757 .33735658 .44599916 .31835938 .47299195 .31835938 .49499513 .31835938 .5269928 .3363495 .5269928 .37635804 .5269928 .42837525 .46798707 .4423828 .43399049 .4423828 .37599183 .4423828 .34098817 .38935853 .32899476 .36634828 .3039856 .43237306 .25 .4423828 .22099304 .4423828 .116989139 .4423828 .05999756 .3133545 .05999756 .28834535 .05999756 .27833558 .069992069 .27833558 .07199097 .27833558 .07998657 .27833558 .08299255 .28033448 .084991458 .28933717 .11898804 .39535523 .18499756 .42037965 .21899414 .42037965 .23799134 .42037965 .272995 .4113617 .272995 .35334779 .272995 .32235719 .2559967 .25532533 .21899414 .11528015 .20298767 .053268434 .16799927 .011245728 .12399292 .011245728 .117996219 .011245728 .09498596 .011245728 .07398987 .024276734 .09899902 .029266358 .12098694 .05027771 .12098694 .07827759 .12098694 .105270389 .09899902 .11328125 .083999637 .11328125 .053985597 .11328125 .0289917 .08728027 .0289917 .055267335 .0289917 .009246826 .07899475-.0107421879 .12298584-.0107421879 .18899536-.0107421879 .22499085 .059280397 .22799683 .0652771 .23999024 .028274537 .27598573-.0107421879 .33599855-.0107421879 .43899537-.0107421879 .49598695 .118270877 .49598695 .14328003 .49598695 .1532898 .4869995 .1532898 .48399354 .1532898 .47499085 .1532898 .47299195 .14929199 .47099305 .14228821 .43798829 .03527832 .36999513 .011245728 .33799745 .011245728 .29899598 .011245728 .2829895 .043273927 .2829895 .07727051 .2829895 .09927368 .2889862 .121276859 .2999878 .16529846L.33399964 .30233766Z"/>
<path id="font_5_5" d="M.116989139 .21801758C.116989139 .38093568 .19898987 .42323304 .2519989 .42323304 .26098634 .42323304 .32398988 .42222596 .35899354 .38594056 .31799317 .38293458 .31199647 .3529358 .31199647 .3399353 .31199647 .31393434 .32998658 .2939453 .35798646 .2939453 .38398744 .2939453 .4039917 .3109436 .4039917 .34094239 .4039917 .40911866 .32798768 .4482422 .25099183 .4482422 .12599182 .4482422 .033996583 .3399353 .033996583 .21601868 .033996583 .08816528 .1329956-.0107421879 .24899292-.0107421879 .3829956-.0107421879 .4149933 .10914612 .4149933 .119140628 .4149933 .12911988 .40499879 .12911988 .4019928 .12911988 .3929901 .12911988 .3909912 .12512207 .3889923 .119140628 .3600006 .026229859 .29499818 .014251709 .2579956 .014251709 .20498657 .014251709 .116989139 .0572052 .116989139 .21801758Z"/>
<path id="font_5_6" d="M.47099305 .21424866C.47099305 .34223939 .37098695 .4482422 .25 .4482422 .125 .4482422 .027999878 .3392334 .027999878 .21424866 .027999878 .085250858 .13198853-.0107421879 .24899292-.0107421879 .36999513-.0107421879 .47099305 .087249759 .47099305 .21424866M.25 .014251709C.20698548 .014251709 .16299439 .035247804 .13598633 .08125305 .11099243 .12524414 .11099243 .18624878 .11099243 .22224427 .11099243 .26124574 .11099243 .31523133 .1349945 .35923768 .1619873 .40522767 .20899964 .426239 .24899292 .426239 .29299928 .426239 .33599855 .40423585 .3619995 .36123658 .3880005 .3182373 .3880005 .26023866 .3880005 .22224427 .3880005 .18624878 .3880005 .13224793 .3659973 .08824158 .34399415 .04324341 .2999878 .014251709 .25 .014251709Z"/>
<path id="font_5_7" d="M.20799256 .19424439C.22999573 .19024658 .31199647 .17424011 .31199647 .102249149 .31199647 .051254274 .2769928 .011245728 .19898987 .011245728 .114990238 .011245728 .07899475 .06825256 .05999756 .15324402 .056991579 .1662445 .055999757 .17024231 .04598999 .17024231 .032989503 .17024231 .032989503 .16323853 .032989503 .14524842V.013244629C.032989503-.003753662 .032989503-.0107421879 .04399109-.0107421879 .04899597-.0107421879 .049987794-.009750366 .068984989 .009246826 .070999149 .011245728 .070999149 .013244629 .08898926 .03224182 .1329956-.009750366 .17799378-.0107421879 .19898987-.0107421879 .31399537-.0107421879 .3600006 .056243898 .3600006 .12825012 .3600006 .1812439 .32998658 .21124268 .31799317 .22323609 .2849884 .25523377 .24598694 .26324464 .20399475 .27124024 .147995 .28224183 .08099365 .2952423 .08099365 .35324098 .08099365 .38822938 .10699463 .42922975 .19299317 .42922975 .30299378 .42922975 .30799867 .3392334 .30999757 .3082428 .31098939 .2992401 .31999208 .2992401 .32199098 .2992401 .33499146 .2992401 .33499146 .304245 .33499146 .3232422V.4242401C.33499146 .4412384 .33499146 .4482422 .32398988 .4482422 .31900025 .4482422 .31698609 .4482422 .3039856 .43623353 .30099488 .43223573 .29100038 .42323304 .2869873 .42022706 .24899292 .4482422 .20799256 .4482422 .19299317 .4482422 .070999149 .4482422 .032989503 .38124085 .032989503 .3252411 .032989503 .29023744 .04899597 .26223756 .07598877 .24023438 .10798645 .21424866 .13598633 .2082367 .20799256 .19424439Z"/>
<path id="font_5_1" d="M.33099366-.2400055C.33099366-.23701477 .33099366-.23500061 .31399537-.21800232 .18899536-.0920105 .15699768 .09700012 .15699768 .25 .15699768 .42399598 .19499207 .59799197 .31799317 .72299197 .33099366 .73498538 .33099366 .7369995 .33099366 .73999026 .33099366 .746994 .32699586 .75 .32099916 .75 .31098939 .75 .22099304 .6819916 .1619873 .5549927 .11099243 .44499208 .09899902 .33399964 .09899902 .25 .09899902 .17199707 .10998535 .050994874 .16499329-.06201172 .22499085-.18501282 .31098939-.25 .32099916-.25 .32699586-.25 .33099366-.24700928 .33099366-.2400055Z"/>
<path id="font_4_2" d="M.48599244 .38136292C.48999024 .39537049 .48999024 .39736939 .48999024 .40437318 .48999024 .42237855 .47599793 .43138124 .46099855 .43138124 .45098878 .43138124 .43499757 .42536927 .42599488 .41036988 .42399598 .405365 .41600038 .37435914 .4119873 .35635377 .40499879 .33035279 .397995 .30334474 .3919983 .27633668L.34700013 .09628296C.34298707 .08126831 .2999878 .011245728 .23399353 .011245728 .18299866 .011245728 .17199707 .055267335 .17199707 .0922699 .17199707 .1382904 .18899536 .20030213 .22299195 .28833009 .23899842 .3293457 .24299622 .3403473 .24299622 .36035157 .24299622 .405365 .21099854 .4423828 .16099549 .4423828 .06599426 .4423828 .0289917 .29733277 .0289917 .28833009 .0289917 .27833558 .038986207 .27833558 .040985109 .27833558 .050994874 .27833558 .051986696 .28033448 .056991579 .29634095 .083999637 .3903656 .12399292 .42037965 .1579895 .42037965 .1659851 .42037965 .18299866 .42037965 .18299866 .3883667 .18299866 .36335755 .17298889 .3373413 .1659851 .31834413 .12599182 .21231079 .10798645 .1552887 .10798645 .10827637 .10798645 .019256592 .17098999-.0107421879 .22999573-.0107421879 .2689972-.0107421879 .30299378 .0062561037 .33099366 .03425598 .31799317-.017745972 .30599977-.06674194 .2659912-.11973572 .23999024-.15385437 .20199585-.18309021 .1559906-.18309021 .14199829-.18309021 .09700012-.18005371 .07998657-.14074707 .09599304-.14074707 .10899353-.14074707 .12298584-.1287384 .1329956-.11973572 .14299011-.10673523 .14299011-.08773804 .14299011-.056747438 .115997318-.052734376 .10598755-.052734376 .08299255-.052734376 .049987794-.068740848 .049987794-.11773682 .049987794-.16796875 .09399414-.20507813 .1559906-.20507813 .25898744-.20507813 .3619995-.11373901 .3899994-.00074768069L.48599244 .38136292Z"/>
<path id="font_5_2" d="M.2889862 .25C.2889862 .32798768 .27799989 .44898988 .22299195 .56199648 .16299439 .68499758 .07699585 .75 .066986087 .75 .06098938 .75 .056991579 .74598696 .056991579 .73999026 .056991579 .7369995 .056991579 .73498538 .07598877 .71699526 .17399597 .6179962 .23098755 .45899964 .23098755 .25 .23098755 .07899475 .19400025-.09700012 .069992069-.2230072 .056991579-.23500061 .056991579-.23701477 .056991579-.2400055 .056991579-.2460022 .06098938-.25 .066986087-.25 .07699585-.25 .16699219-.18200684 .22599793-.055007936 .2769928 .054992677 .2889862 .16600037 .2889862 .25Z"/>
<path id="font_5_4" d="M.68699648 .32714845C.70199587 .32714845 .72099307 .32714845 .72099307 .34713746 .72099307 .36714173 .70199587 .36714173 .6879883 .36714173H.08898926C.07499695 .36714173 .055999757 .36714173 .055999757 .34713746 .055999757 .32714845 .07499695 .32714845 .08999634 .32714845H.68699648M.6879883 .13284302C.70199587 .13284302 .72099307 .13284302 .72099307 .15284729 .72099307 .17285156 .70199587 .17285156 .68699648 .17285156H.08999634C.07499695 .17285156 .055999757 .17285156 .055999757 .15284729 .055999757 .13284302 .07499695 .13284302 .08898926 .13284302H.6879883Z"/>
<path id="font_5_3" d="M.2939911 .16503906V.07800293C.2939911 .041992189 .2919922 .0309906 .21798706 .0309906H.19699097V0C.23799134 .0029907227 .2899933 .0029907227 .33198548 .0029907227 .37399293 .0029907227 .4269867 .0029907227 .46798707 0V.0309906H.44699098C.37298585 .0309906 .37098695 .041992189 .37098695 .07800293V.16503906H.47099305V.19602967H.37098695V.65075686C.37098695 .67074587 .37098695 .6767578 .35499574 .6767578 .34599305 .6767578 .34298707 .6767578 .33499146 .66474917L.027999878 .19602967V.16503906H.2939911M.2999878 .19602967H.055999757L.2999878 .5688019V.19602967Z"/>
<path id="font_6_1" d="M.6589966 .23046875C.6759949 .23046875 .69400027 .23046875 .69400027 .25045777 .69400027 .27046205 .6759949 .27046205 .6589966 .27046205H.117996219C.100997928 .27046205 .08299255 .27046205 .08299255 .25045777 .08299255 .23046875 .100997928 .23046875 .117996219 .23046875H.6589966Z"/>
</defs>
<path transform="matrix(1.00003,0,0,-1.00002,1.1504669,208.02785)" stroke-width=".3985" stroke-linecap="butt" stroke-miterlimit="10" stroke-linejoin="miter" fill="none" stroke="#cccccc" d="M.9461 0V206.22824M18.024 0V206.22824M35.10191 0V206.22824M52.17981 0V206.22824M69.2577 0V206.22824M86.33562 0V206.22824M103.41351 0V206.22824M120.49142 0V206.22824M137.56932 0V206.22824M154.64723 0V206.22824M171.72513 0V206.22824M188.80303 0V206.22824M205.88094 0V206.22824M222.95883 0V206.22824M240.03675 0V206.22824"/>
<path transform="matrix(1.00003,0,0,-1.00002,1.1504669,208.02785)" stroke-width=".3985" stroke-linecap="butt" stroke-miterlimit="10" stroke-linejoin="miter" fill="none" stroke="#cccccc" d="M.9461 0H240.03675M.9461 14.12521H240.03675M.9461 28.25044H240.03675M.9461 42.37566H240.03675M.9461 56.50089H240.03675M.9461 70.6261H240.03675M.9461 84.75133H240.03675M.9461 98.87654H240.03675M.9461 113.00177H240.03675M.9461 127.127H240.03675M.9461 141.25222H240.03675M.9461 155.37744H240.03675M.9461 169.50266H240.03675M.9461 183.62789H240.03675M.9461 197.7531H240.03675"/>
<path transform="matrix(1.00003,0,0,-1.00002,1.1504669,208.02785)" stroke-width=".19925" stroke-linecap="butt" stroke-miterlimit="10" stroke-linejoin="miter" fill="none" stroke="#7f807f" d="M.9461 55.08318V57.9186M18.024 55.08318V57.9186M35.10191 55.08318V57.9186M52.17981 55.08318V57.9186M69.2577 55.08318V57.9186M86.33562 55.08318V57.9186M103.41351 55.08318V57.9186M120.49142 55.08318V57.9186M137.56932 55.08318V57.9186M154.64723 55.08318V57.9186M171.72513 55.08318V57.9186M188.80303 55.08318V57.9186M205.88094 55.08318V57.9186M222.95883 55.08318V57.9186M240.03675 55.08318V57.9186"/>
<path transform="matrix(1.00003,0,0,-1.00002,1.1504669,208.02785)" stroke-width=".19925" stroke-linecap="butt" stroke-miterlimit="10" stroke-linejoin="miter" fill="none" stroke="#7f807f" d="M52.17981 54.37456V58.6272M86.33562 54.37456V58.6272M154.64723 54.37456V58.6272M188.80303 54.37456V58.6272"/>
<path transform="matrix(1.00003,0,0,-1.00002,1.1504669,208.02785)" stroke-width=".19925" stroke-linecap="butt" stroke-miterlimit="10" stroke-linejoin="miter" fill="none" stroke="#7f807f" d="M119.07399 0H121.90887M119.07399 14.12521H121.90887M119.07399 28.25044H121.90887M119.07399 42.37566H121.90887M119.07399 56.50089H121.90887M119.07399 70.6261H121.90887M119.07399 84.75133H121.90887M119.07399 98.87654H121.90887M119.07399 113.00177H121.90887M119.07399 127.127H121.90887M119.07399 141.25222H121.90887M119.07399 155.37744H121.90887M119.07399 169.50266H121.90887M119.07399 183.62789H121.90887M119.07399 197.7531H121.90887"/>
<path transform="matrix(1.00003,0,0,-1.00002,1.1504669,208.02785)" stroke-width=".19925" stroke-linecap="butt" stroke-miterlimit="10" stroke-linejoin="miter" fill="none" stroke="#7f807f" d="M118.36546 0H122.61737M118.36546 28.25044H122.61737M118.36546 84.75133H122.61737M118.36546 113.00177H122.61737M118.36546 141.25222H122.61737M118.36546 169.50266H122.61737M118.36546 197.7531H122.61737"/>
<path transform="matrix(1.00003,0,0,-1.00002,1.1504669,208.02785)" stroke-width=".3985" stroke-linecap="butt" stroke-miterlimit="10" stroke-linejoin="miter" fill="none" stroke="#ff0000" d="M1.40439 56.50089H239.57846"/>
<path transform="matrix(-1.00003,-0,0,1.00002,2.5548993,151.52582)" stroke-width=".31879" stroke-linecap="round" stroke-linejoin="round" fill="none" stroke="#ff0000" d="M-1.19551 1.59401C-1.09587 .99626 0 .09961 .29886 0 0-.09961-1.09587-.99626-1.19551-1.59401"/>
<path transform="matrix(1.00003,0,0,-1.00002,240.73613,151.52582)" stroke-width=".31879" stroke-linecap="round" stroke-linejoin="round" fill="none" stroke="#ff0000" d="M-1.19551 1.59401C-1.09587 .99626 0 .09961 .29886 0 0-.09961-1.09587-.99626-1.19551-1.59401"/>
<path transform="matrix(1.00003,0,0,-1.00002,1.1504669,208.02785)" stroke-width=".3985" stroke-linecap="butt" stroke-miterlimit="10" stroke-linejoin="miter" fill="none" stroke="#ff0000" d="M120.49142 .45827V205.76996"/>
<path transform="matrix(0,1.00002,1.00003,0,121.6455,207.56957)" stroke-width=".31879" stroke-linecap="round" stroke-linejoin="round" fill="none" stroke="#ff0000" d="M-1.19551 1.59401C-1.09587 .99626 0 .09961 .29886 0 0-.09961-1.09587-.99626-1.19551-1.59401"/>
<path transform="matrix(0,-1.00002,-1.00003,-0,121.6455,2.253769)" stroke-width=".31879" stroke-linecap="round" stroke-linejoin="round" fill="none" stroke="#ff0000" d="M-1.19551 1.59401C-1.09587 .99626 0 .09961 .29886 0 0-.09961-1.09587-.99626-1.19551-1.59401"/>
<use data-text="&#x2212;" xlink:href="#font_1_1" transform="matrix(7.9703395,0,0,-7.9702599,47.92087,162.30893)"/>
<use data-text="4" xlink:href="#font_2_4" transform="matrix(7.9703395,0,0,-7.9702599,54.508069,162.30893)"/>
<use data-text="&#x2212;" xlink:href="#font_1_1" transform="matrix(7.9703395,0,0,-7.9702599,82.0779,162.30893)"/>
<use data-text="2" xlink:href="#font_2_3" transform="matrix(7.9703395,0,0,-7.9702599,88.6651,162.30893)"/>
<use data-text="2" xlink:href="#font_2_3" transform="matrix(7.9703395,0,0,-7.9702599,153.68505,162.30893)"/>
<use data-text="4" xlink:href="#font_2_4" transform="matrix(7.9703395,0,0,-7.9702599,187.84209,162.30893)"/>
<use data-text="&#x2212;" xlink:href="#font_1_1" transform="matrix(7.9703395,0,0,-7.9702599,107.06965,210.1809)"/>
<use data-text="4" xlink:href="#font_2_4" transform="matrix(7.9703395,0,0,-7.9702599,113.656848,210.1809)"/>
<use data-text="&#x2212;" xlink:href="#font_1_1" transform="matrix(7.9703395,0,0,-7.9702599,107.06965,181.93033)"/>
<use data-text="2" xlink:href="#font_2_3" transform="matrix(7.9703395,0,0,-7.9702599,113.656848,181.93033)"/>
<use data-text="2" xlink:href="#font_2_3" transform="matrix(7.9703395,0,0,-7.9702599,113.655849,125.8432)"/>
<use data-text="4" xlink:href="#font_2_4" transform="matrix(7.9703395,0,0,-7.9702599,113.655849,97.59164)"/>
<use data-text="6" xlink:href="#font_2_5" transform="matrix(7.9703395,0,0,-7.9702599,113.655849,69.341068)"/>
<use data-text="8" xlink:href="#font_2_6" transform="matrix(7.9703395,0,0,-7.9702599,113.655849,41.0905)"/>
<use data-text="1" xlink:href="#font_2_2" transform="matrix(7.9703395,0,0,-7.9702599,109.421718,12.8389439)"/>
<use data-text="0" xlink:href="#font_2_1" transform="matrix(7.9703395,0,0,-7.9702599,113.65397,12.8389439)"/>
<g clip-path="url(#clip_3)">
<path transform="matrix(1.00003,0,0,-1.00002,1.1504669,208.02785)" stroke-width=".3985" stroke-linecap="butt" stroke-miterlimit="10" stroke-linejoin="miter" fill="none" stroke="#ff0000" d="M120.49142 113.00133 120.52731 112.97165 120.63522 112.88246 120.81583 112.7338 121.0703 112.5269 121.40012 112.2663 121.80708 111.96262 122.29283 111.63602 122.85785 111.32045 123.50032 111.06721 124.21434 110.9468 124.98802 111.04456 125.80333 111.45044 126.6374 112.23808 127.4686 113.4401 128.28372 115.02753 129.08298 116.89702 129.88307 118.8755 130.71681 120.72646 131.63526 122.16391 132.70896 122.86345 134.0412 122.47217 135.79288 120.61504 138.24971 116.8817 142.01813 110.73715"/>
<path transform="matrix(1.00003,0,0,-1.00002,1.1504669,208.02785)" stroke-width=".3985" stroke-linecap="butt" stroke-miterlimit="10" stroke-linejoin="miter" fill="none" stroke="#ff0000" d="M142.01914 110.73543 142.35472 110.207 142.70397 109.66267 143.06822 109.10052 143.44838 108.52124 143.84632 107.92262 144.26335 107.30424 144.70088 106.6652 145.1613 106.00334 145.64632 105.31877 146.15984 104.60764 146.7043 103.86891 147.28357 103.10048 147.90247 102.29915 148.56749 101.45937 149.28614 100.57709 150.06916 99.64456 150.92664 98.65707 151.88027 97.59796 152.95754 96.44968 154.1962 95.18925 155.67105 93.7667 157.52758 92.08876 160.1347 89.92645 167.26267 84.98358"/>
<path transform="matrix(1.00003,0,0,-1.00002,1.1504669,208.02785)" stroke-width=".3985" stroke-linecap="butt" stroke-miterlimit="10" stroke-linejoin="miter" fill="none" stroke="#ff0000" d="M181.8781 85.07541 177.71895 87.17442 175.90341 88.20232 174.68183 88.94041 173.65613 89.59027 172.75287 90.18636 171.99308 90.70802 171.34001 91.17247 170.70388 91.63695 170.1386 92.0626 169.59842 92.4797 169.11425 92.86427 168.64292 93.24664 168.21921 93.59982 167.83376 93.92874 167.43618 94.27306 167.07227 94.59535 166.71173 94.92021 166.38179 95.22426 166.05219 95.53242 165.74701 95.82387 165.4449 96.11667 165.17472 96.38484 164.9013 96.65912 164.62755 96.93729"/>
<path transform="matrix(1.00003,0,0,-1.00002,1.1504669,208.02785)" stroke-width=".3985" stroke-linecap="butt" stroke-miterlimit="10" stroke-linejoin="miter" fill="none" stroke="#ff0000" d="M164.62772 96.93723 161.2007 100.85313 158.80672 104.17157 156.96384 107.15788 155.48423 109.90599 154.25579 112.48024 153.22174 114.90361 152.3441 117.19019 151.59267 119.35397 150.94918 121.39757 150.39568 123.33197 149.92742 125.1442 149.5329 126.83987 149.20586 128.41785 148.94219 129.87146 148.73827 131.19866 148.59345 132.38996 148.50276 133.44835 148.46862 134.36058 148.48876 135.1267 148.56407 135.74031 148.69557 136.1954 148.88584 136.48476 149.13686 136.60425 149.45299 136.54521"/>
<path transform="matrix(1.00003,0,0,-1.00002,1.1504669,208.02785)" stroke-width=".3985" stroke-linecap="butt" stroke-miterlimit="10" stroke-linejoin="miter" fill="none" stroke="#ff0000" d="M149.45299 136.54523 149.70864 136.40082 149.99828 136.16783 150.32532 135.84244 150.69028 135.4273 151.09587 134.9186 151.54587 134.3111 152.04627 133.60216 152.6013 132.7901 153.21268 131.87023 153.89409 130.84323 154.6421 129.70294 155.4772 128.43672 156.40625 127.04678 157.44287 125.52837 158.6093 123.86075 159.92601 122.04561 161.43228 120.0526 163.16226 117.8761 165.19283 115.47696 167.60594 112.8248 170.5809 109.82373 174.37563 106.39198 179.6117 102.26927 188.06697 96.80193"/>
<path transform="matrix(1.00003,0,0,-1.00002,1.1504669,208.02785)" stroke-width=".3985" stroke-linecap="butt" stroke-miterlimit="10" stroke-linejoin="miter" fill="none" stroke="#ff0000" d="M188.06697 96.80193 188.46829 96.57404 188.9089 96.326 189.3256 96.09232 189.79184 95.83429 190.24611 95.58667 190.6833 95.35127 191.23322 95.05798 191.74726 94.78978 192.30742 94.49904 192.81804 94.2397 193.47212 93.90912 194.03398 93.63109 194.75296 93.27931 195.38144 92.97969 196.19434 92.59557 196.89624 92.27153 197.75868 91.88051 198.63477 91.49188 199.57918 91.08104 200.69609 90.60855 201.84714 90.13234 203.25606 89.56715 204.78624 88.97447 206.78777 88.22844"/>
<path transform="matrix(1.00003,0,0,-1.00002,1.1504669,208.02785)" stroke-width=".3985" stroke-linecap="butt" stroke-miterlimit="10" stroke-linejoin="miter" fill="none" stroke="#ff0000" d="M236.73729 85.2294 221.526 89.57655 215.66657 91.63542 211.7045 93.18602 208.62023 94.49446 206.12001 95.62924 203.88965 96.70178 202.02132 97.65048 200.32038 98.55528 198.78507 99.40709 197.39151 100.21414 196.08506 100.99753 194.90155 101.73515 193.80515 102.4414 192.77536 103.12517 191.778 103.80939 190.89167 104.43607 190.03777 105.05655 189.22657 105.66072 188.46147 106.24805 187.71346 106.83382 187.01668 107.39465 186.35065 107.94203 185.71192 108.47926 185.07834 109.02434"/>
<path transform="matrix(1.00003,0,0,-1.00002,1.1504669,208.02785)" stroke-width=".3985" stroke-linecap="butt" stroke-miterlimit="10" stroke-linejoin="miter" fill="none" stroke="#ff0000" d="M185.07834 109.02434 179.23598 114.69702 175.15438 119.5268 172.09572 123.78041 169.71335 127.57748 167.81941 130.99103 166.29436 134.05902 165.06987 136.79528 164.093 139.21674 163.32622 141.33657 162.74556 143.14766 162.3374 144.65103 162.08637 145.84386 161.99073 146.72138 162.04196 147.27573 162.2452 147.50193 162.60211 147.39266 163.1264 146.93584 163.82659 146.12212 164.72661 144.94297 165.85033 143.37833 167.23365 141.41602 168.93459 139.0226 171.0164 136.18753 173.60199 132.85375"/>
<path transform="matrix(1.00003,0,0,-1.00002,1.1504669,208.02785)" stroke-width=".3985" stroke-linecap="butt" stroke-miterlimit="10" stroke-linejoin="miter" fill="none" stroke="#ff0000" d="M173.60199 132.85375 174.31073 131.97435 175.0485 131.07956 175.83065 130.14763 176.66063 129.1789 177.54869 128.1699 178.48458 127.12813 179.49045 126.04164 180.57147 124.90373 181.72425 123.72905 182.96408 122.50513 184.3013 121.22926 185.76145 119.88753 187.34287 118.49126 189.07627 117.02594 191.00949 115.46266 193.1374 113.82932 195.56418 112.06996 198.31543 110.19427 201.50557 108.16553 205.31737 105.92508 210.00012 103.41624 216.01837 100.53459 224.5966 96.97212 240.03675 91.80386"/>
<path transform="matrix(1.00003,0,0,-1.00002,1.1504669,208.02785)" stroke-width=".3985" stroke-linecap="butt" stroke-miterlimit="10" stroke-linejoin="miter" fill="none" stroke="#ff0000" d="M239.97354 97.40813 227.44519 102.28452 219.39809 106.09955 213.4806 109.3528 208.78588 112.26228 204.98433 114.87839 201.74808 117.31332 198.98146 119.5717 196.55469 121.70139 194.42507 123.70245 192.51576 125.60925 190.80115 127.42244 189.24193 129.15984 187.84325 130.80558 186.54532 132.40076 185.36524 133.92305 184.27739 135.38219 183.28345 136.77935 182.35953 138.12126 181.50222 139.41875 180.71665 140.65233 179.98058 141.84508 179.306 142.97774 178.68096 144.06526 178.09688 145.1093"/>
<path transform="matrix(1.00003,0,0,-1.00002,1.1504669,208.02785)" stroke-width=".3985" stroke-linecap="butt" stroke-miterlimit="10" stroke-linejoin="miter" fill="none" stroke="#ff0000" d="M178.09688 145.10932 177.0466 147.08284 176.15341 148.86959 175.402 150.47023 174.78206 151.89147 174.27657 153.13164 173.88378 154.19435 173.59688 155.07427 173.40901 155.7754 173.32361 156.2951 173.33045 156.63205 173.43975 156.78441 173.64638 156.7505 173.9538 156.52683 174.36879 156.11052 174.89138 155.50208 175.5335 154.69197 176.302 153.67882 177.21056 152.4594 178.27109 151.0303 179.50753 149.37596 180.94037 147.49108 182.60034 145.36992 184.53356 142.98673 186.78784 140.33499"/>
<path transform="matrix(1.00003,0,0,-1.00002,1.1504669,208.02785)" stroke-width=".3985" stroke-linecap="butt" stroke-miterlimit="10" stroke-linejoin="miter" fill="none" stroke="#ff0000" d="M186.78784 140.335 187.58196 139.43463 188.41365 138.50725 189.29828 137.54488 190.22562 136.55219 191.21102 135.52509 192.25278 134.46321 193.3543 133.36574 194.5378 132.22087 195.78789 131.04358 197.14559 129.80498 198.56818 128.54647 200.1291 127.21121 201.79248 125.84315 203.60274 124.40535 205.5889 122.89352 207.73389 121.33047 210.11283 119.67918 212.76845 117.9264 215.73488 116.0798 219.11801 114.09688 223.01689 111.9668 227.57158 109.66505 233.07408 107.12303 240.01795 104.23245"/>
<path transform="matrix(1.00003,0,0,-1.00002,1.1504669,208.02785)" stroke-width=".3985" stroke-linecap="butt" stroke-miterlimit="10" stroke-linejoin="miter" fill="none" stroke="#ff0000" d="M240.00258 110.34631 236.83634 111.84276 233.92626 113.295 231.29116 114.67926 228.94123 115.97386 226.69889 117.2618 224.66492 118.48456 222.77097 119.66739 221.05294 120.78374 219.40663 121.89082 217.85767 122.96774 216.40264 124.01286 215.03298 125.0307 213.74019 126.02063 212.54132 126.96494 211.3766 127.90889 210.26996 128.83002 209.21454 129.73154 208.20865 130.61336 207.24716 131.47605 206.32837 132.32006 205.45056 133.1464 204.60863 133.95645 203.80425 134.75104 203.02722 135.52983"/>
<path transform="matrix(1.00003,0,0,-1.00002,1.1504669,208.02785)" stroke-width=".3985" stroke-linecap="butt" stroke-miterlimit="10" stroke-linejoin="miter" fill="none" stroke="#ff0000" d="M203.02722 135.52986 199.13687 139.70662 195.97063 143.47566 193.35771 146.8837 191.18712 149.95581 189.37343 152.71987 187.86374 155.18856 186.61365 157.3742 185.59409 159.27748 184.7829 160.90651 184.15613 162.267 183.70528 163.35613 183.42691 164.17104 183.30565 164.71474 183.34835 164.98542 183.54645 164.98 183.91022 164.69629 184.44304 164.13034 185.15689 163.2757 186.06374 162.12599 187.17893 160.68216 188.52977 158.92908 190.1573 156.84803 192.09052 154.44104 194.39946 151.67707"/>
<path transform="matrix(1.00003,0,0,-1.00002,1.1504669,208.02785)" stroke-width=".3985" stroke-linecap="butt" stroke-miterlimit="10" stroke-linejoin="miter" fill="none" stroke="#ff0000" d="M194.39946 151.67708 195.17139 150.7806 195.9843 149.8508 196.8416 148.8862 197.74845 147.88697 198.70822 146.85 199.72606 145.76947 200.79685 144.66202 201.93253 143.50962 203.15189 142.30493 204.4498 141.05657 205.82628 139.77 207.29669 138.43592 208.88835 137.03205 210.57906 135.59249 212.4269 134.07474 214.4028 132.51323 216.55805 130.87543 218.93186 129.14812 221.53453 127.33984 224.38312 125.46234 227.59037 123.45732 231.18184 121.34511 235.2942 119.07825 240.05724 116.64052"/>
<path transform="matrix(1.00003,0,0,-1.00002,1.1504669,208.02785)" stroke-width=".3985" stroke-linecap="butt" stroke-miterlimit="10" stroke-linejoin="miter" fill="none" stroke="#ff0000" d="M240.02307 123.28209 226.26854 132.23354 217.22919 139.6034 210.7208 145.91359 205.8297 151.37143 202.06572 156.09825 199.12834 160.1794 196.86209 163.63191 195.12699 166.509 193.84955 168.81414 192.97858 170.55889 192.48332 171.74478 192.34328 172.36988 192.55504 172.43363 193.12374 171.92745 194.06133 170.84616 195.41559 169.16907 197.22927 166.8843 199.58773 163.96288 202.60198 160.37259 206.4445 156.0705 211.3971 150.9675 217.93622 144.93013 226.8526 137.7931 240.03162 129.07837"/>
<path transform="matrix(1.00003,0,0,-1.00002,1.1504669,208.02785)" stroke-width=".3985" stroke-linecap="butt" stroke-miterlimit="10" stroke-linejoin="miter" fill="none" stroke="#ff0000" d="M240.04357 136.21646 230.20157 143.60294 222.9964 149.9788 217.4905 155.55132 213.19882 160.41812 209.80544 164.6558 207.11055 168.32096 204.99288 171.43361 203.34828 174.02906 202.13404 176.09932 201.29381 177.66194 200.81221 178.71784 200.66706 179.26454 200.85662 179.30384 201.38603 178.82619 202.26895 177.82743 203.52759 176.30379 205.21662 174.22936 207.38379 171.5957 210.12137 168.376 213.55574 164.53495 217.85938 160.02922 223.33968 154.77211 230.45603 148.65508 240.03331 141.49517"/>
<path transform="matrix(1.00003,0,0,-1.00002,1.1504669,208.02785)" stroke-width=".3985" stroke-linecap="butt" stroke-miterlimit="10" stroke-linejoin="miter" fill="none" stroke="#ff0000" d="M240.05724 149.1628 232.9699 155.20667 227.42128 160.54598 223.01007 165.25138 219.43738 169.41483 216.53925 173.064 214.19446 176.22856 212.3193 178.92801 210.85572 181.17217 209.76445 182.95897 208.99936 184.31279 208.56046 185.22017 208.42554 185.68819 208.58779 185.71273 209.05742 185.29514 209.84471 184.42235 210.96845 183.09723 212.45594 181.30667 214.35157 179.03554 216.71858 176.2681 219.62865 172.99007 223.20304 169.16884 227.61428 164.75203 233.08432 159.70421 240.03162 153.90578"/>
<path transform="matrix(1.00003,0,0,-1.00002,1.1504669,208.02785)" stroke-width=".3985" stroke-linecap="butt" stroke-miterlimit="10" stroke-linejoin="miter" fill="none" stroke="#ff0000" d="M240.04698 162.14226 235.09098 166.8897 230.99912 171.16062 227.62622 174.96173 224.81008 178.35457 222.48065 181.3401 220.5628 183.93933 219.01213 186.15084 217.78765 187.99535 216.86202 189.47057 216.21306 190.58579 215.83223 191.33666 215.7161 191.72267 215.85102 191.74558 216.24723 191.40381 216.90644 190.69263 217.84741 189.60935 219.08727 188.14363 220.6482 186.29929 222.5763 184.05088 224.91083 181.39794 227.71332 178.3286 231.0879 174.7992 235.13709 170.80243 240.04186 166.28797"/>
<path transform="matrix(1.00003,0,0,-1.00002,1.1504669,208.02785)" stroke-width=".3985" stroke-linecap="butt" stroke-miterlimit="10" stroke-linejoin="miter" fill="none" stroke="#ff0000" d="M239.9855 175.20073 236.71849 178.68584 233.93138 181.8424 231.54901 184.6867 229.47406 187.28655 227.76796 189.52771 226.34197 191.48488 225.17043 193.16172 224.21407 194.59224 223.5207 195.68738 223.01007 196.55359 222.71462 197.12773 222.61557 197.43268 222.71462 197.46762 223.02544 197.21 223.54631 196.67173 224.2448 195.89345 225.20116 194.78757 226.42906 193.35175 227.8602 191.69394 229.55603 189.748 231.55585 187.50597 234.01677 184.82303 236.7612 181.94332 239.95989 178.73146"/>
<path transform="matrix(1.00003,0,0,-1.00002,1.1504669,208.02785)" stroke-width=".3985" stroke-linecap="butt" stroke-miterlimit="10" stroke-linejoin="miter" fill="none" stroke="#ff0000" d="M239.98209 188.26198 238.15987 190.41797 236.44867 192.51383 235.00218 194.35242 233.74011 196.00705 232.58565 197.56659 231.6713 198.85135 230.86539 200.01482 230.25794 200.93412 229.79033 201.67775 229.44673 202.26154 229.25119 202.65009 229.18357 202.86762 229.25032 202.90464 229.44963 202.76306 229.80263 202.41655 230.27568 201.91355 230.9028 201.21237 231.66139 200.34906 232.62834 199.2322 233.70255 197.99939 234.98339 196.53572 236.41622 194.92534 238.14963 193.00449 240.00429 191.00045"/>
<path transform="matrix(1.00003,0,0,-1.00002,1.1504669,208.02785)" stroke-width=".3985" stroke-linecap="butt" stroke-miterlimit="10" stroke-linejoin="miter" fill="none" stroke="#ff0000" d="M240.05553 201.34506 239.29795 202.3431 238.58324 203.3017 237.97646 204.13524 237.41425 204.92145 236.99517 205.53223 236.56787 206.15767 236.23024 206.67093 235.95546 207.10559 235.7314 207.4758 235.58112 207.75049 235.48667 207.95236 235.45867 208.067 235.48992 208.10341 235.57753 208.06549 235.72475 207.94905 235.94487 207.73783 236.21778 207.45832 236.5689 207.07924 236.97006 206.63689 237.4363 206.11496 237.99353 205.48172 238.59673 204.79683 239.27404 204.02646 240.06066 203.13092"/>
<path transform="matrix(1.00003,0,0,-1.00002,1.1504669,208.02785)" stroke-width=".3985" stroke-linecap="butt" stroke-miterlimit="10" stroke-linejoin="miter" fill="none" stroke="#ff0000" d="M167.26575 84.98167 168.03629 84.52095"/>
<path transform="matrix(1.00003,0,0,-1.00002,1.1504669,208.02785)" stroke-width=".3985" stroke-linecap="butt" stroke-miterlimit="10" stroke-linejoin="miter" fill="none" stroke="#ff0000" d="M240.05211 66.9856 236.11225 67.3708 232.36705 67.76361 228.78582 68.16579 225.37024 68.57666 222.08957 68.99864 218.94553 69.43051 215.91591 69.8753 212.9973 70.33228 210.18798 70.80173 207.4555 71.28888 204.81015 71.79138 202.22626 72.3145 199.72264 72.85594 197.26854 73.42168 194.85202 74.01547 192.45769 74.6438 190.0873 75.30905 187.7254 76.01894 185.3328 76.79 182.88213 77.64066 180.32044 78.60106 177.53675 79.73718 174.27999 81.2065 168.04825 84.51253"/>
<path transform="matrix(1.00003,0,0,-1.00002,1.1504669,208.02785)" stroke-width=".3985" stroke-linecap="butt" stroke-miterlimit="10" stroke-linejoin="miter" fill="none" stroke="#ff0000" d="M181.8781 85.07541 183.30394 84.42723"/>
<path transform="matrix(1.00003,0,0,-1.00002,1.1504669,208.02785)" stroke-width=".3985" stroke-linecap="butt" stroke-miterlimit="10" stroke-linejoin="miter" fill="none" stroke="#ff0000" d="M183.30394 84.42723 188.9721 82.13751 192.05126 81.05559 194.75638 80.1806 197.07556 79.48274 199.26667 78.86229 201.37236 78.2991 203.47806 77.76367 205.50522 77.27438 207.55115 76.80334 209.53902 76.3666 211.58495 75.93752 213.566 75.53958 215.56923 75.15437 217.70909 74.75912 219.7482 74.39883 221.8146 74.04866 224.0228 73.68904 226.14386 73.35822 228.43231 73.01477 230.63365 72.69829 232.86745 72.38994 235.22077 72.0769 237.55362 71.77942 240.07602 71.4697"/>
<path transform="matrix(1.00003,0,0,-1.00002,1.1504669,208.02785)" stroke-width=".3985" stroke-linecap="butt" stroke-miterlimit="10" stroke-linejoin="miter" fill="none" stroke="#ff0000" d="M206.78777 88.22813 219.20682 84.25034"/>
<path transform="matrix(1.00003,0,0,-1.00002,1.1504669,208.02785)" stroke-width=".3985" stroke-linecap="butt" stroke-miterlimit="10" stroke-linejoin="miter" fill="none" stroke="#ff0000" d="M239.21016 79.54918 239.00864 79.58963 238.43141 79.70401 237.63559 79.86241 236.87221 80.0166 236.28643 80.13673 235.87485 80.22221 235.24639 80.35303 234.64524 80.47992 233.98091 80.62158 233.53517 80.7175 232.66762 80.90594 231.97939 81.05783 231.27066 81.2163 230.51923 81.38559 229.77463 81.55678 228.96343 81.74522 228.12662 81.94228 227.24369 82.15422 226.62377 82.3051 225.6025 82.55699 224.49585 82.83588 223.22354 83.16312 221.68824 83.56856 219.21195 84.24821"/>
<path transform="matrix(1.00003,0,0,-1.00002,1.1504669,208.02785)" stroke-width=".3985" stroke-linecap="butt" stroke-miterlimit="10" stroke-linejoin="miter" fill="none" stroke="#ff0000" d="M188.72618 56.58084 188.69715 56.62253 188.67665 56.67299 188.67154 56.73212 188.6869 56.79996 188.73471 56.8763 188.82865 56.96095 188.97724 57.05365 189.20095 57.1539 189.51346 57.26117 189.9336 57.37471 190.48862 57.4935 191.19907 57.61635 192.10588 57.74174 193.24842 57.86783 194.66588 57.99245 196.41977 58.11311 198.58867 58.22676 201.27332 58.32999 204.6001 58.41899 208.73635 58.4896 213.91437 58.53732 220.48424 58.55713 228.9361 58.54398 240.04357 58.49255"/>
<path transform="matrix(1.00003,0,0,-1.00002,1.1504669,208.02785)" stroke-width=".3985" stroke-linecap="butt" stroke-miterlimit="10" stroke-linejoin="miter" fill="none" stroke="#ff0000" d="M.94098 51.98997 8.83951 51.53392 15.36156 51.07843 20.78038 50.6262 25.29407 50.18039 29.04268 49.74461 32.15256 49.32175 34.69716 48.91571 36.7431 48.52992 38.34158 48.1682 39.52167 47.8342 40.30896 47.53201 40.71028 47.26573 40.73079 47.03957 40.3619 46.85767 39.59169 46.7237 38.38087 46.6427 36.68672 46.61887 34.44783 46.65623 31.5702 46.75975 27.9309 46.93385 23.35915 47.18279 17.60048 47.51215 10.31161 47.92554 .9444 48.42856"/>
<path transform="matrix(1.00003,0,0,-1.00002,1.1504669,208.02785)" stroke-width=".3985" stroke-linecap="butt" stroke-miterlimit="10" stroke-linejoin="miter" fill="none" stroke="#ff0000" d="M.93585 38.94551 5.26169 38.16876 8.9266 37.4439 12.06041 36.76692 14.73138 36.13847 16.98567 35.56187 18.86081 35.0392 20.40466 34.56993 21.62915 34.15767 22.57869 33.79836 23.24472 33.49855 23.64604 33.25832 23.79633 33.07649 23.68533 32.95773 23.31303 32.90135 22.68285 32.90848 21.76747 32.98254 20.5669 33.12227 19.04698 33.3305 17.18378 33.60928 14.93974 33.95895 12.26363 34.38269 9.09227 34.8819 5.34195 35.45927 .95123 36.11017"/>
<path transform="matrix(1.00003,0,0,-1.00002,1.1504669,208.02785)" stroke-width=".3985" stroke-linecap="butt" stroke-miterlimit="10" stroke-linejoin="miter" fill="none" stroke="#ff0000" d="M.94952 25.79329 2.58046 25.29004 4.05257 24.81512 5.34026 24.37956 6.47421 23.97847 7.45619 23.61287 8.28448 23.28674 8.98639 22.99394 9.54652 22.74022 9.98715 22.52097 10.29112 22.34125 10.47557 22.19781 10.53876 22.0929 10.4807 22.02481 10.30138 21.99562 9.99397 22.00587 9.55849 22.05551 8.99834 22.14386 8.3084 22.2706 7.46986 22.44012 6.48618 22.64993 5.36415 22.89769 4.06624 23.19006 2.59412 23.52516 .94098 23.90028"/>
<path transform="matrix(1.00003,0,0,-1.00002,1.1504669,208.02785)" stroke-width=".3985" stroke-linecap="butt" stroke-miterlimit="10" stroke-linejoin="miter" fill="none" stroke="#ff0000" d="M120.49142 113.00133 120.46742 113.02118 120.39548 113.08066 120.27594 113.17932 120.10928 113.3161 119.89616 113.48878 119.63731 113.69331 119.33351 113.92282 118.98549 114.16699 118.59349 114.4109 118.15727 114.63437 117.67567 114.81123 117.14606 114.90898 116.56395 114.88914 115.92223 114.70703 115.21042 114.31352 114.41373 113.65681 113.51184 112.6851 112.4759 111.35046 111.26917 109.61626 109.84215 107.46881 108.13641 104.93498 106.0973 102.12654 103.73218 99.33116 101.28459 97.19336"/>
<path transform="matrix(1.00003,0,0,-1.00002,1.1504669,208.02785)" stroke-width=".3985" stroke-linecap="butt" stroke-miterlimit="10" stroke-linejoin="miter" fill="none" stroke="#ff0000" d="M101.28459 97.19336 100.79121 96.91272 100.33931 96.73495 99.93732 96.66821 99.59456 96.72443 99.31601 96.9073 99.10391 97.21791 98.95772 97.65393 98.87097 98.205 98.8392 98.8646 98.85371 99.62125 98.90666 100.46243 98.98982 101.37714 99.0969 102.35683 99.2214 103.39075 99.35803 104.47021 99.5013 105.58699 99.64851 106.73378 99.79573 107.90385 99.94072 109.09149 100.08144 110.29076 100.21535 111.49625 100.34189 112.70236 100.45921 113.90431 100.56664 115.09805"/>
<path transform="matrix(1.00003,0,0,-1.00002,1.1504669,208.02785)" stroke-width=".3985" stroke-linecap="butt" stroke-miterlimit="10" stroke-linejoin="miter" fill="none" stroke="#ff0000" d="M100.56664 115.09853 100.70667 116.8625 100.8199 118.58192 100.90358 120.24004 100.95601 121.82318 100.97496 123.31581 100.95857 124.70274 100.90427 125.96954 100.8105 127.1009 100.67336 128.08123 100.49046 128.89621 100.25734 129.52997 99.96907 129.96608 99.62016 130.18993 99.20381 130.18648 98.71146 129.93993 98.13217 129.43318 97.45195 128.64813 96.65442 127.56848 95.71684 126.17482 94.60934 124.4458 93.28699 122.34578 91.69193 119.84567 89.73003 116.88892 87.24416 113.38522"/>
<path transform="matrix(1.00003,0,0,-1.00002,1.1504669,208.02785)" stroke-width=".3985" stroke-linecap="butt" stroke-miterlimit="10" stroke-linejoin="miter" fill="none" stroke="#ff0000" d="M87.24416 113.38522 86.80988 112.80188 86.35986 112.20836 85.88681 111.59375 85.39154 110.96135 84.8763 110.31665 84.32811 109.64183 83.75497 108.95206 83.14632 108.23415 82.50266 107.49213 81.82841 106.73633 81.10193 105.93997 80.31975 105.10493 79.47849 104.23367 78.5766 103.32993 77.59753 102.38132 76.50882 101.36307 75.32002 100.29724 73.9712 99.13869 72.44359 97.89124 70.65007 96.50592 68.50047 94.95213 65.73795 93.10724 61.79005 90.7343 52.75822 86.24657"/>
<path transform="matrix(1.00003,0,0,-1.00002,1.1504669,208.02785)" stroke-width=".3985" stroke-linecap="butt" stroke-miterlimit="10" stroke-linejoin="miter" fill="none" stroke="#ff0000" d="M30.81706 85.03926 42.77672 89.46748 46.98813 91.39456 49.97334 92.91113 52.29251 94.1919 54.22061 95.33003 55.8362 96.34372 57.28098 97.29974 58.56181 98.18979 59.7197 99.0298 60.77512 99.82852 61.74344 100.59073 62.65369 101.33238 63.48538 102.0357 64.26242 102.7148 64.98824 103.37114 65.67477 104.00986 66.32373 104.63046 66.9351 105.23468 67.51918 105.82384 68.08275 106.40771 68.60875 106.97017 69.1211 107.52994 69.61464 108.07838 70.08257 108.61491"/>
<path transform="matrix(1.00003,0,0,-1.00002,1.1504669,208.02785)" stroke-width=".3985" stroke-linecap="butt" stroke-miterlimit="10" stroke-linejoin="miter" fill="none" stroke="#ff0000" d="M70.07574 108.60715 74.04977 113.71193 76.9052 118.14856 79.06897 122.09866 80.75114 125.64694 82.0832 128.8408 83.1301 131.69182 83.94641 134.21649 84.55951 136.40758 84.9933 138.26882 85.26823 139.79375 85.38266 140.9673 85.34338 141.78337 85.15382 142.22754 84.80373 142.28801 84.28627 141.95017 83.57924 141.19667 82.66386 140.01326 81.50769 138.37494 80.05608 136.25412 78.25093 133.62615 75.97957 130.44316 73.0695 126.61401 69.24918 122.04324 63.93623 116.48375"/>
<path transform="matrix(1.00003,0,0,-1.00002,1.1504669,208.02785)" stroke-width=".3985" stroke-linecap="butt" stroke-miterlimit="10" stroke-linejoin="miter" fill="none" stroke="#ff0000" d="M63.93623 116.48375 63.26337 115.8403 62.55463 115.17447 61.79466 114.47478 61.0125 113.77368 60.19106 113.0532 59.31837 112.30415 58.40642 111.54149 57.42955 110.745 56.40318 109.93227 55.28458 109.07025 54.10107 108.18797 52.84584 107.28055 51.4557 106.3113 49.98187 105.31909 48.35095 104.26561 46.55264 103.15182 44.52037 101.95119 42.27292 100.69153 39.66171 99.30865 36.5484 97.7635 32.7793 96.03203 27.8267 93.95638 20.613 91.2879 0 85.36601"/>
<path transform="matrix(1.00003,0,0,-1.00002,1.1504669,208.02785)" stroke-width=".3985" stroke-linecap="butt" stroke-miterlimit="10" stroke-linejoin="miter" fill="none" stroke="#ff0000" d="M1.11688 90.96199 15.1959 95.62552 23.01245 98.82312 28.58498 101.4524 32.90227 103.73503 36.42032 105.78244 39.40895 107.67134 41.96552 109.41103 44.23859 111.06514 46.21278 112.59465 48.02477 114.07779 49.64032 115.47426 51.1278 116.82335 52.48721 118.11789 53.75098 119.37297 54.91397 120.57729 56.00185 121.7489 57.00774 122.87532 57.94702 123.96753 58.83337 125.03436 59.66164 126.06424 60.45235 127.0784 61.18669 128.0525 61.88518 129.00582 62.5495 129.94065"/>
<path transform="matrix(1.00003,0,0,-1.00002,1.1504669,208.02785)" stroke-width=".3985" stroke-linecap="butt" stroke-miterlimit="10" stroke-linejoin="miter" fill="none" stroke="#ff0000" d="M62.5495 129.94066 64.99849 133.63883 66.971 136.96015 68.56606 139.92287 69.86226 142.55997 70.89891 144.8789 71.71523 146.88224 72.33003 148.57236 72.7621 149.95265 73.02852 151.01949 73.12756 151.76992 73.06609 152.20053 72.84578 152.30387 72.45468 152.0749 71.89113 151.50585 71.13628 150.59049 70.17479 149.31513 68.9725 147.66857 67.49527 145.62992 65.69698 143.19023 63.49222 140.30962 60.78535 136.95778 57.40224 133.07085 53.06787 128.54882 47.32968 123.26785"/>
<path transform="matrix(1.00003,0,0,-1.00002,1.1504669,208.02785)" stroke-width=".3985" stroke-linecap="butt" stroke-miterlimit="10" stroke-linejoin="miter" fill="none" stroke="#ff0000" d="M47.32968 123.26785 46.4997 122.5635 45.65263 121.86064 44.75946 121.13155 43.82701 120.3877 42.84674 119.6223 41.83571 118.85236 40.74104 118.03738 39.62073 117.22394 38.43552 116.38657 37.15295 115.50278 35.8021 114.60117 34.38805 113.68501 32.83737 112.71062 31.21667 111.72617 29.42691 110.67628 27.48515 109.57973 25.42386 108.46284 23.09955 107.25641 20.59764 106.01735 17.72343 104.6648 14.54695 103.25131 10.78297 101.67732 6.45201 99.9899 1.02295 98.04047"/>
<path transform="matrix(1.00003,0,0,-1.00002,1.1504669,208.02785)" stroke-width=".3985" stroke-linecap="butt" stroke-miterlimit="10" stroke-linejoin="miter" fill="none" stroke="#ff0000" d="M.97855 103.87164 6.96948 106.4194 11.83669 108.70667 15.92513 110.79855 19.48929 112.76826 22.55135 114.58336 25.27016 116.29732 27.70377 117.92516 29.93925 119.50137 31.9408 120.9859 33.80228 122.43341 35.48787 123.80449 37.06929 125.14677 38.52943 126.43404 39.88715 127.67952 41.15602 128.88568 42.35147 130.06415 43.46666 131.20044 44.51695 132.30414 45.5126 133.3843 46.44505 134.42755 47.33652 135.44985 48.18018 136.44683 48.97258 137.40859 49.73083 138.35349"/>
<path transform="matrix(1.00003,0,0,-1.00002,1.1504669,208.02785)" stroke-width=".3985" stroke-linecap="butt" stroke-miterlimit="10" stroke-linejoin="miter" fill="none" stroke="#ff0000" d="M49.73083 138.35353 50.99802 139.98647 52.16785 141.56203 53.22498 143.04734 54.20866 144.47743 55.10696 145.83917 55.93353 147.13605 56.69179 148.37026 57.392 149.54634 58.0341 150.65837 58.62502 151.71845 59.15955 152.71079 59.64969 153.6498 60.09712 154.5343 60.50357 155.36362 60.86392 156.12815 61.19011 156.84264 61.4753 157.49878 61.72635 158.099 61.94325 158.64595 62.12256 159.13135 62.27115 159.56768 62.38557 159.94329 62.46924 160.26442 62.51877 160.52654"/>
<path transform="matrix(1.00003,0,0,-1.00002,1.1504669,208.02785)" stroke-width=".3985" stroke-linecap="butt" stroke-miterlimit="10" stroke-linejoin="miter" fill="none" stroke="#ff0000" d="M62.51877 160.52658 62.53073 160.84616 62.45387 161.00087 62.2831 160.98868 62.01839 160.80937 61.65634 160.46103 61.19524 159.93988 60.62312 159.24394 59.94171 158.36885 59.13564 157.31586 58.19806 156.07357 57.11191 154.64363 55.86522 153.02051 54.43237 151.18706 52.7912 149.15053 50.89897 146.8822 48.72325 144.38619 46.19058 141.62352 43.21733 138.57678 39.70612 135.22769 35.46909 131.50872 30.22617 127.34811 23.52992 122.63542 14.48717 117.16066 .97514 110.451"/>
<path transform="matrix(1.00003,0,0,-1.00002,1.1504669,208.02785)" stroke-width=".3985" stroke-linecap="butt" stroke-miterlimit="10" stroke-linejoin="miter" fill="none" stroke="#ff0000" d="M.93074 116.79466 3.5556 118.17953 5.9653 119.50888 8.18542 120.78801 10.29454 122.05095 12.2124 123.24655 14.00388 124.40427 15.66383 125.51485 17.3016 126.64424 18.77373 127.69627 20.17754 128.73099 21.51302 129.7409 22.80753 130.7499 24.0064 131.71077 25.1472 132.65013 26.25214 133.57975 27.29218 134.48021 28.28441 135.36078 29.25955 136.24295 30.16127 137.07833 31.05273 137.92462 31.89127 138.73618 32.7127 139.54915 33.48633 140.32933 34.23947 141.1038"/>
<path transform="matrix(1.00003,0,0,-1.00002,1.1504669,208.02785)" stroke-width=".3985" stroke-linecap="butt" stroke-miterlimit="10" stroke-linejoin="miter" fill="none" stroke="#ff0000" d="M34.23947 141.10382 38.18788 145.42943 41.39 149.3106 44.02682 152.80261 46.18718 155.90026 47.96669 158.64688 49.42685 161.05947 50.60352 163.14066 51.52744 164.8912 52.21909 166.32265 52.7024 167.43238 52.97905 168.2183 53.05933 168.6863 52.9449 168.82878 52.63237 168.64417 52.11833 168.13144 51.3891 167.28049 50.42761 166.0858 49.21849 164.54459 47.72418 162.64066 45.91393 160.36867 43.72282 157.70108 41.08942 154.63118 37.8873 151.10585 33.9816 147.09697"/>
<path transform="matrix(1.00003,0,0,-1.00002,1.1504669,208.02785)" stroke-width=".3985" stroke-linecap="butt" stroke-miterlimit="10" stroke-linejoin="miter" fill="none" stroke="#ff0000" d="M33.9816 147.09699 33.21309 146.34456 32.42067 145.5826 31.58897 144.7939 30.72655 143.989 29.84532 143.18326 28.918 142.34961 27.94286 141.48854 26.91646 140.59752 25.85422 139.69589 24.76465 138.79155 23.58969 137.83402 22.37033 136.86351 21.10315 135.8787 19.75911 134.85852 18.35359 133.82205 16.86272 132.74645 15.30179 131.65415 13.62985 130.5153 11.85547 129.34264 9.94444 128.12038 7.95146 126.88628 5.79109 125.59671 3.4685 124.25961 .93414 122.85612"/>
<path transform="matrix(1.00003,0,0,-1.00002,1.1504669,208.02785)" stroke-width=".3985" stroke-linecap="butt" stroke-miterlimit="10" stroke-linejoin="miter" fill="none" stroke="#ff0000" d="M.92049 129.73136 12.55565 137.87633 20.68645 144.77698 26.69275 150.72034 31.30548 155.89792 34.9038 160.39588 37.73361 164.27919 39.94862 167.58356 41.64444 170.32077 42.90138 172.51609 43.75868 174.17259 44.25395 175.29676 44.3974 175.88272 44.19931 175.93216 43.6494 175.43863 42.73232 174.39112 41.4156 172.78159 39.65659 170.5938 37.3818 167.80461 34.48882 164.38437 30.83243 160.29795 26.18211 155.47472 20.17581 149.82659 12.15433 143.1765 .95465 135.28993"/>
<path transform="matrix(1.00003,0,0,-1.00002,1.1504669,208.02785)" stroke-width=".3985" stroke-linecap="butt" stroke-miterlimit="10" stroke-linejoin="miter" fill="none" stroke="#ff0000" d="M.9444 142.69828 9.29549 149.39235 15.63823 155.24463 20.60277 160.39977 24.54092 164.91959 27.70206 168.88024 30.22958 172.29956 32.24135 175.22057 33.79715 177.63713 34.96187 179.57662 35.76624 181.03903 36.23247 182.02167 36.3742 182.5299 36.19661 182.56064 35.69281 182.10822 34.85428 181.16881 33.65541 179.73525 32.06204 177.7936 30.01782 175.33426 27.46126 172.33718 24.2711 168.7595 20.3244 164.5843 15.38547 159.7463 9.10251 154.15053 .94098 147.69423"/>
<path transform="matrix(1.00003,0,0,-1.00002,1.1504669,208.02785)" stroke-width=".3985" stroke-linecap="butt" stroke-miterlimit="10" stroke-linejoin="miter" fill="none" stroke="#ff0000" d="M.93074 155.64943 6.89775 161.05034 11.68297 165.8478 15.57332 170.11334 18.76347 173.88979 21.38835 177.21938 23.5265 180.10837 25.24625 182.57114 26.59712 184.6184 27.61325 186.25864 28.31856 187.49083 28.73186 188.3231 28.86165 188.74948 28.70964 188.7717 28.27417 188.38883 27.55005 187.59702 26.51001 186.38501 25.13695 184.74633 23.40697 182.68729 21.25343 180.1769 18.62173 177.19928 15.42303 173.73561 11.54465 169.76816 6.80382 165.24015 .93585 160.09122"/>
<path transform="matrix(1.00003,0,0,-1.00002,1.1504669,208.02785)" stroke-width=".3985" stroke-linecap="butt" stroke-miterlimit="10" stroke-linejoin="miter" fill="none" stroke="#ff0000" d="M.89487 168.59816 5.07211 172.81748 8.41255 176.45601 11.3568 179.86569 13.72379 182.77632 15.79533 185.45783 17.43483 187.69356 18.83862 189.68996 19.94356 191.34398 20.7428 192.6154 21.33028 193.61539 21.66159 194.26445 21.77602 194.61917 21.65305 194.6401 21.29784 194.33997 20.71548 193.72466 19.88379 192.78319 18.77542 191.48702 17.37845 189.84423 15.67067 187.85292 13.705 185.61319 11.26627 182.9073 8.44159 179.89041 5.0243 176.40654 .96829 172.49729"/>
<path transform="matrix(1.00003,0,0,-1.00002,1.1504669,208.02785)" stroke-width=".3985" stroke-linecap="butt" stroke-miterlimit="10" stroke-linejoin="miter" fill="none" stroke="#ff0000" d="M.95976 181.68047 3.52145 184.55606 5.74158 187.17043 7.71407 189.59473 9.27158 191.59973 10.72319 193.52838 11.91013 195.1698 12.88867 196.57721 13.69441 197.77902 14.27626 198.70067 14.72336 199.45 14.96193 199.92182 15.04527 200.18379 14.9587 200.21446 14.70543 200.01869 14.26738 199.57495 13.68057 198.93584 12.88014 198.02288 11.9067 196.9 10.701 195.49977 9.30403 193.89467 7.62527 191.99237 5.72792 189.88919 3.47876 187.4606 1.02979 184.90775"/>
<path transform="matrix(1.00003,0,0,-1.00002,1.1504669,208.02785)" stroke-width=".3985" stroke-linecap="butt" stroke-miterlimit="10" stroke-linejoin="miter" fill="none" stroke="#ff0000" d="M.95465 194.77126 2.24915 196.38437 3.44647 197.91259 4.46587 199.25452 5.3891 200.4998 6.16068 201.57277 6.84428 202.54648 7.39388 203.35845 7.85274 204.05942 8.19156 204.60755 8.43391 205.0309 8.5847 205.33457 8.62842 205.49637 8.57736 205.53142 8.42844 205.4367 8.17671 205.20595 7.82883 204.84954 7.36705 204.3465 6.81526 203.7312 6.13608 202.95786 5.36227 202.07433 4.44263 201.0213 3.43127 199.87154 2.25034 198.53775 .96489 197.10889"/>
<path transform="matrix(1.00003,0,0,-1.00002,1.1504669,208.02785)" stroke-width=".3985" stroke-linecap="butt" stroke-miterlimit="10" stroke-linejoin="miter" fill="none" stroke="#ff0000" d="M.92816 208.06232 1.19203 208.44069 1.41386 208.76734 1.61214 209.06496 1.80887 209.36139 1.96259 209.60323 2.09682 209.82012 2.21123 210.01218 2.30551 210.17829 2.39192 210.3347 2.44162 210.44318 2.47133 210.52596 2.48175 210.58296 2.47269 210.61551 2.43854 210.61452 2.38644 210.59026 2.31319 210.53842 2.21567 210.4554 2.0992 210.34769 1.96378 210.21517 1.80734 210.05658 1.63177 209.87299 1.43607 209.66426 1.1968 209.4006 .95566 209.13564"/>
<path transform="matrix(1.00003,0,0,-1.00002,1.1504669,208.02785)" stroke-width=".3985" stroke-linecap="butt" stroke-miterlimit="10" stroke-linejoin="miter" fill="none" stroke="#ff0000" d="M188.72618 56.58084 188.91916 56.42198"/>
<path transform="matrix(1.00003,0,0,-1.00002,1.1504669,208.02785)" stroke-width=".3985" stroke-linecap="butt" stroke-miterlimit="10" stroke-linejoin="miter" fill="none" stroke="#ff0000" d="M188.91916 56.42198 188.98748 56.38193 189.08652 56.3338 189.21631 56.27773 189.38539 56.21388 189.6057 56.14249 189.88407 56.06381 190.23586 55.97826 190.66794 55.88625 191.20418 55.78842 191.85997 55.68556 192.6541 55.57858 193.60533 55.46844 194.75296 55.3566 196.12262 55.24438 197.75356 55.13351 199.70215 55.02606 202.02986 54.92413 204.80503 54.83017 208.13692 54.74696 212.16048 54.67749 217.05159 54.625 223.06472 54.59317 230.54827 54.58557 240.04186 54.60664"/>
<path transform="matrix(1.00003,0,0,-1.00002,1.1504669,208.02785)" stroke-width=".3985" stroke-linecap="butt" stroke-miterlimit="10" stroke-linejoin="miter" fill="none" stroke="#ff0000" d="M240.03675 45.47539 233.98091 44.75479 228.91732 44.06662 224.69736 43.41743 221.15883 42.8058 218.20606 42.2347 215.7605 41.70616 213.77434 41.22443 212.18952 40.79022 210.9804 40.40677 210.11795 40.07492 209.58342 39.79796 209.36994 39.57814 209.47412 39.41779 209.90448 39.31949 210.66786 39.2849 211.78305 39.31668 213.28079 39.4178 215.20546 39.59065 217.59467 39.83597 220.52353 40.15833 224.08257 40.5585 228.40668 41.0415 233.64107 41.60747 240.02307 42.26044"/>
<path transform="matrix(1.00003,0,0,-1.00002,1.1504669,208.02785)" stroke-width=".3985" stroke-linecap="butt" stroke-miterlimit="10" stroke-linejoin="miter" fill="none" stroke="#ff0000" d="M240.03675 32.38959 237.1796 31.69887 234.68451 31.05382 232.52075 30.45795 230.66097 29.91112 229.06078 29.4106 227.70992 28.95944 226.59986 28.55922 225.70156 28.20769 225.0133 27.90793 224.52829 27.65941 224.23456 27.46286 224.13208 27.31909 224.22089 27.22847 224.50267 27.19188 224.97914 27.21048 225.65885 27.28503 226.54862 27.41591 227.65355 27.60324 228.99588 27.84879 230.59267 28.15408 232.46952 28.52017 234.64524 28.94649 237.14032 29.43141 240.03675 29.98474"/>
<path transform="matrix(1.00003,0,0,-1.00002,1.1504669,208.02785)" stroke-width=".3985" stroke-linecap="butt" stroke-miterlimit="10" stroke-linejoin="miter" fill="none" stroke="#ff0000" d="M240.03675 19.1081 239.42365 18.86516 238.86348 18.63625 238.36312 18.42493 237.91738 18.23033 237.52458 18.05089 237.18814 17.8885 236.90465 17.74371 236.6724 17.61426 236.49478 17.50365 236.36669 17.40915 236.29155 17.33188 236.26593 17.27151 236.28815 17.22757 236.36669 17.20227 236.49137 17.19289 236.6724 17.20229 236.90125 17.2275 237.18303 17.27132 237.52117 17.3328 237.90712 17.41064 238.35286 17.50693 238.85495 17.62155 239.4168 17.75441 240.03844 17.9053"/>
<path transform="matrix(1.00003,0,0,-1.00002,1.1504669,208.02785)" stroke-width=".3985" stroke-linecap="butt" stroke-miterlimit="10" stroke-linejoin="miter" fill="none" stroke="#ff0000" d="M30.81706 85.03926 28.97093 84.46336"/>
<path transform="matrix(1.00003,0,0,-1.00002,1.1504669,208.02785)" stroke-width=".3985" stroke-linecap="butt" stroke-miterlimit="10" stroke-linejoin="miter" fill="none" stroke="#ff0000" d="M28.97093 84.46336 25.06863 83.32333 22.98514 82.75226 21.5301 82.3687 20.02725 81.98445 18.69858 81.65416 17.42628 81.34642 16.2479 81.06728 15.46402 80.88634 14.20538 80.59967 13.14998 80.36525 12.1492 80.14716 11.15698 79.93454 10.3492 79.76472 9.39796 79.56783 8.4638 79.37796 7.58427 79.20221 6.68427 79.02448 5.94138 78.88083 5.06358 78.7124 4.2114 78.55205 3.34384 78.39058 2.49506 78.23474 1.78804 78.10808 .95123 77.95863"/>
<path transform="matrix(1.00003,0,0,-1.00002,1.1504669,208.02785)" stroke-width=".3985" stroke-linecap="butt" stroke-miterlimit="10" stroke-linejoin="miter" fill="none" stroke="#ff0000" d="M52.75822 86.24657 45.18642 83.25607"/>
<path transform="matrix(1.00003,0,0,-1.00002,1.1504669,208.02785)" stroke-width=".3985" stroke-linecap="butt" stroke-miterlimit="10" stroke-linejoin="miter" fill="none" stroke="#ff0000" d="M.88121 73.17674 2.54971 73.4195 4.20116 73.66702 5.76036 73.90746 7.55013 74.191 9.1708 74.45615 10.78981 74.7285 12.3234 74.99509 13.9236 75.28078 15.52892 75.57559 17.14961 75.88327 18.76518 76.19934 20.3893 76.52681 21.94168 76.85135 23.59651 77.20767 25.4341 77.61678 27.06332 77.99316 28.81383 78.41309 30.60358 78.859 32.46678 79.34196 34.43246 79.87302 36.56035 80.47575 38.75829 81.13066 41.4583 81.98236 45.18642 83.25546"/>
<path transform="matrix(1.00003,0,0,-1.00002,1.1504669,208.02785)" stroke-width=".3985" stroke-linecap="butt" stroke-miterlimit="10" stroke-linejoin="miter" fill="none" stroke="#ff0000" d="M.94098 60.79326 14.66136 61.51508 25.59634 62.28035 34.47685 63.08748 41.79645 63.9338 47.883 64.8144 52.99443 65.72472 57.28781 66.65639 60.89978 67.6003 63.91061 68.54184 66.37495 69.4627 68.33209 70.34068 69.78372 71.14572 70.70934 71.84079 71.06796 72.38356 70.78448 72.72812 69.7598 72.83264 67.87439 72.66888 64.94896 72.2235 60.7939 71.5104 55.08305 70.55342 47.35017 69.38731 36.82164 68.0488 22.17393 66.57219 .9461 64.9871"/>
<path transform="matrix(1.00003,0,0,-1.00002,1.1504669,208.02785)" stroke-width=".3985" stroke-linecap="butt" stroke-miterlimit="10" stroke-linejoin="miter" fill="none" stroke="#ff0000" d="M171.72513 28.25044"/>
<use data-text="x" xlink:href="#font_4_1" transform="matrix(9.962899,0,0,-9.962799,135.3485,182.26734)"/>
<use data-text="c" xlink:href="#font_5_5" transform="matrix(9.962899,0,0,-9.962799,142.70273,182.26734)"/>
<use data-text="o" xlink:href="#font_5_6" transform="matrix(9.962899,0,0,-9.962799,147.12625,182.26734)"/>
<use data-text="s" xlink:href="#font_5_7" transform="matrix(9.962899,0,0,-9.962799,152.1077,182.26734)"/>
<use data-text="(" xlink:href="#font_5_1" transform="matrix(9.962899,0,0,-9.962799,156.03308,182.26734)"/>
<use data-text="x" xlink:href="#font_4_1" transform="matrix(9.962899,0,0,-9.962799,159.91724,182.26734)"/>
<use data-text="y" xlink:href="#font_4_2" transform="matrix(9.962899,0,0,-9.962799,165.60605,182.26734)"/>
<use data-text=")" xlink:href="#font_5_2" transform="matrix(9.962899,0,0,-9.962799,170.85358,182.26734)"/>
<use data-text="=" xlink:href="#font_5_4" transform="matrix(9.962899,0,0,-9.962799,177.4789,182.26734)"/>
<use data-text="4" xlink:href="#font_5_3" transform="matrix(9.962899,0,0,-9.962799,187.98976,182.26734)"/>
<use data-text="&#x2212;" xlink:href="#font_6_1" transform="matrix(9.962899,0,0,-9.962799,195.2063,182.26734)"/>
<use data-text="y" xlink:href="#font_4_2" transform="matrix(9.962899,0,0,-9.962799,205.1696,182.26734)"/>
</g>
<use data-text="x" xlink:href="#font_4_1" transform="matrix(9.962899,0,0,-9.962799,232.03041,147.99365)" fill="#ff0000"/>
<use data-text="y" xlink:href="#font_4_2" transform="matrix(9.962899,0,0,-9.962799,125.18319,9.557877)" fill="#ff0000"/>
</svg>
